<svg width="80" height="80" viewBox="0 0 80 80" fill="none" xmlns="http://www.w3.org/2000/svg">
<path d="M4.93164 31.1934H75.0686V53.7374H4.93164V31.1934Z" fill="#D46366"/>
<path d="M72.5625 31.1934H75.0674V53.7374H72.5625V31.1934Z" fill="#A21313"/>
<path d="M9.94141 36.2031H70.0588V48.7276H9.94141V36.2031Z" fill="#A21313"/>
<path d="M19.961 53.7383V61.253H9.94143V73.7774H4.93164V53.7383" fill="#FFCC00"/>
<path d="M60.0391 53.7383V61.253H70.0586V73.7774H75.0684V53.7383" fill="#FFCC00"/>
<path d="M72.5625 53.7383H75.0674V73.7774H72.5625V53.7383Z" fill="#FFCC00"/>
<path d="M73.8157 31.1934C76.5825 31.1934 78.8255 28.9504 78.8255 26.1836V21.1738H73.8157V24.9312C73.8157 25.6228 73.2549 26.1836 72.5633 26.1836H7.43606C6.7444 26.1836 6.18361 25.6228 6.18361 24.9312V21.1738H1.17383V26.1836C1.17383 28.9504 3.4168 31.1934 6.18361 31.1934H73.8157Z" fill="white"/>
<path d="M78.1553 28.6885C77.2895 30.1851 75.6692 31.1934 73.8156 31.1934H6.18348C4.32986 31.1934 2.7095 30.1851 1.84375 28.6885H78.1553Z" fill="#FCF2F3"/>
<path d="M24.9707 26.1836H55.0294V31.1934H24.9707V26.1836Z" fill="#FFCC00"/>
<path d="M24.9707 28.6885H55.0294V31.1934H24.9707V28.6885Z" fill="#FFCC00"/>
<path d="M28.7266 41.292H31.2315V43.6403H28.7266V41.292Z" fill="white"/>
<path d="M18.707 41.292H21.2119V43.6403H18.707V41.292Z" fill="white"/>
<path d="M58.7852 41.292H61.2902V43.6403H58.7852V41.292Z" fill="white"/>
<path d="M48.7656 41.292H51.2705V43.6403H48.7656V41.292Z" fill="white"/>
<path d="M40.001 44.9707C41.3844 44.9707 42.5059 43.8492 42.5059 42.4658C42.5059 41.0824 41.3844 39.9609 40.001 39.9609C38.6176 39.9609 37.4961 41.0824 37.4961 42.4658C37.4961 43.8492 38.6176 44.9707 40.001 44.9707Z" fill="#FFCC00"/>
<path d="M8.76758 35.0293V49.9021H71.2333V35.0293H8.76758ZM68.885 47.5538H11.1159V37.3776H68.885V47.5538Z" fill="#0F172A"/>
<path d="M72.6419 20V24.9315C72.6419 24.9746 72.6067 25.0098 72.5636 25.0098H65.0489V27.3581H72.5636C73.9017 27.3581 74.9902 26.2696 74.9902 24.9315V22.3483H77.6517V26.184C77.6517 28.299 75.9311 30.0196 73.816 30.0196H56.2035V27.3581H62.544V25.0098H7.4364C7.39319 25.0098 7.35812 24.9746 7.35812 24.9315V20H0V26.184C0 28.7328 1.55037 30.926 3.75734 31.8713V41.2133H6.10568V32.3659C6.13182 32.3662 6.15765 32.3679 6.18395 32.3679H73.816C73.8423 32.3679 73.8682 32.3662 73.8943 32.3659V52.5636H6.10568V43.718H3.75734V74.9511H11.1155V62.4266H21.135V54.9119H58.865V62.4266H68.8845V74.9511H76.2427V31.8713C78.4496 30.926 80 28.7328 80 26.184V20H72.6419ZM23.7965 30.0196H6.18395C4.06904 30.0196 2.34834 28.299 2.34834 26.184V22.3483H5.00978V24.9315C5.00978 26.2696 6.09832 27.3581 7.4364 27.3581H23.7965V30.0196ZM53.8552 30.0196H26.1448V27.3581H53.8552V30.0196ZM18.7867 60.0783H8.76712V72.6027H6.10568V54.9119H18.7867V60.0783ZM73.8943 72.6027H71.2329V60.0783H61.2133V54.9119H73.8943V72.6027Z" fill="#0F172A"/>
<path d="M23.7188 41.292H26.2236V43.6403H23.7188V41.292Z" fill="#0F172A"/>
<path d="M53.7773 41.292H56.2824V43.6403H53.7773V41.292Z" fill="#0F172A"/>
<path d="M39.9994 46.1452C42.028 46.1452 43.6784 44.4948 43.6784 42.4662C43.6784 40.4375 42.028 38.7871 39.9994 38.7871C37.9707 38.7871 36.3203 40.4375 36.3203 42.4662C36.3203 44.4948 37.9707 46.1452 39.9994 46.1452ZM39.9994 41.1354C40.733 41.1354 41.3301 41.7325 41.3301 42.4662C41.3301 43.1998 40.733 43.7969 39.9994 43.7969C39.2656 43.7969 38.6686 43.1998 38.6686 42.4662C38.6686 41.7325 39.2656 41.1354 39.9994 41.1354Z" fill="#0F172A"/>
<g clip-path="url(#clip0_243_32663)">
<path d="M31.1506 13.0998C31.1246 13.0998 31.0981 13.1033 31.0718 13.1107C30.9159 13.1542 30.8248 13.3158 30.8683 13.4716C31.3119 15.0622 32.1826 16.5079 33.3859 17.6524C34.593 18.8006 36.0858 19.5982 37.703 19.9592C37.8608 19.9946 38.0175 19.895 38.0527 19.7371C38.088 19.5792 37.9885 19.4226 37.8306 19.3873C36.3172 19.0495 34.9198 18.3028 33.7897 17.2278C32.663 16.1562 31.8479 14.8028 31.4327 13.3141C31.3966 13.1846 31.2788 13.0998 31.1506 13.0998Z" fill="#A21313"/>
<path d="M38.1234 1.96166C38.1061 1.96166 38.0886 1.96322 38.0711 1.96638C34.5766 2.59658 31.7352 5.224 30.832 8.66009C30.7908 8.81658 30.8843 8.97677 31.0409 9.0179C31.1974 9.059 31.3575 8.96552 31.3987 8.80904C32.2441 5.59244 34.904 3.1329 38.175 2.54298C38.3343 2.51427 38.4401 2.36189 38.4114 2.20267C38.3858 2.06103 38.2624 1.96166 38.1234 1.96166Z" fill="#A21313"/>
<path d="M41.7166 2.04749C41.5833 2.04749 41.4627 2.13917 41.4314 2.27468C41.395 2.43234 41.4934 2.58964 41.651 2.62601C43.1514 2.97202 44.5357 3.72109 45.6543 4.79226C46.77 5.86058 47.5778 7.20699 47.9903 8.68593C48.0337 8.84175 48.1953 8.93292 48.3512 8.88941C48.507 8.84593 48.5981 8.68433 48.5547 8.52851C48.1139 6.94835 47.2511 5.51007 46.0596 4.36906C44.8647 3.22499 43.3858 2.42484 41.7827 2.05511C41.7606 2.04995 41.7384 2.04749 41.7166 2.04749Z" fill="#A21313"/>
<path d="M48.2724 13.0998C48.1442 13.0998 48.0265 13.1846 47.9904 13.3141C47.5778 14.7931 46.7701 16.1395 45.6544 17.2079C44.5357 18.279 43.1514 19.028 41.651 19.3741C41.4934 19.4105 41.395 19.5678 41.4314 19.7254C41.4678 19.8831 41.6251 19.9814 41.7827 19.9451C43.3859 19.5754 44.8648 18.7752 46.0596 17.6311C47.2512 16.4901 48.114 15.0518 48.5548 13.4716C48.5982 13.3157 48.5071 13.1542 48.3513 13.1107C48.3249 13.1033 48.2985 13.0998 48.2724 13.0998Z" fill="#A21313"/>
<path d="M36.0606 14.8988L39.6176 12.7351C39.6752 12.7001 39.7476 12.7001 39.8052 12.7351L43.3622 14.8988C43.5237 14.997 43.7084 14.8124 43.6102 14.6508L41.4464 11.0938C41.4114 11.0362 41.4114 10.9639 41.4464 10.9063L43.6101 7.34927C43.7084 7.18775 43.5237 7.00306 43.3622 7.1013L39.8052 9.26501C39.7475 9.30005 39.6752 9.30005 39.6176 9.26501L36.0606 7.1013C35.8991 7.00306 35.7144 7.18775 35.8126 7.34927L37.9763 10.9063C38.0114 10.9639 38.0114 11.0362 37.9763 11.0938L35.8126 14.6508C35.7144 14.8124 35.8991 14.997 36.0606 14.8988Z" fill="#F4AD47"/>
<path d="M38.8965 18.0874C38.7346 18.0874 38.6035 18.2186 38.6035 18.3804V20.7027C38.6035 20.8309 38.6869 20.9442 38.8093 20.9824C38.9319 21.0205 39.0648 20.9747 39.1376 20.8692L40.2258 19.2933L40.2121 20.7042C40.2106 20.866 40.3405 20.9984 40.5023 21H40.5052C40.6657 21 40.7965 20.8707 40.7981 20.7099L40.8198 18.4616C40.8198 18.301 40.7301 18.1711 40.5913 18.1277C40.4552 18.0853 40.3117 18.138 40.2257 18.2623L39.1895 19.7629V18.3804C39.1895 18.2186 39.0583 18.0874 38.8965 18.0874Z" fill="#A21313"/>
<path d="M49.4187 9.55427H48.4473C48.2854 9.55427 48.1543 9.68544 48.1543 9.84724V12.1527C48.1543 12.3145 48.2854 12.4457 48.4473 12.4457H49.4187C49.5805 12.4457 49.7116 12.3145 49.7116 12.1527C49.7116 11.9909 49.5805 11.8597 49.4187 11.8597H48.7402V10.1402H49.4187C49.5805 10.1402 49.7116 10.009 49.7116 9.84724C49.7116 9.68544 49.5805 9.55427 49.4187 9.55427Z" fill="#F4AD47"/>
<path d="M49.347 10.707H48.4473C48.2854 10.707 48.1543 10.8382 48.1543 11C48.1543 11.1618 48.2854 11.293 48.4473 11.293H49.347C49.5089 11.293 49.64 11.1618 49.64 11C49.64 10.8382 49.5089 10.707 49.347 10.707Z" fill="#F4AD47"/>
<path d="M39.7659 1.0001C39.3726 1.0001 38.9883 1.16502 38.738 1.44119C38.6293 1.56107 38.6385 1.74635 38.7583 1.85502C38.8781 1.96365 39.0635 1.95459 39.1722 1.83467C39.3133 1.67896 39.5352 1.58599 39.7659 1.58599C39.9896 1.58599 40.1472 1.71959 40.1702 1.84881C40.2008 2.02018 39.968 2.12572 39.8665 2.16318C39.5056 2.29631 39.1852 2.43896 39.1717 2.44494C39.1576 2.45127 39.144 2.45865 39.1311 2.46709C38.885 2.62748 38.7583 2.90885 38.8002 3.20127C38.845 3.51291 39.0728 3.7667 39.3948 3.86369C40.0316 4.05564 40.5556 3.6233 40.5776 3.60482C40.7015 3.50068 40.7175 3.31592 40.6134 3.19205C40.5097 3.06869 40.326 3.05232 40.2021 3.15506C40.1931 3.16232 39.8904 3.401 39.5638 3.30268C39.4156 3.25803 39.3861 3.15865 39.3802 3.11799C39.3761 3.08881 39.374 3.01892 39.4362 2.96869C39.5182 2.93283 39.7839 2.81818 40.0694 2.71291C40.6576 2.49592 40.8052 2.07107 40.7471 1.7458C40.6699 1.31373 40.2572 1.0001 39.7659 1.0001Z" fill="#A21313"/>
<path d="M41.4468 10.9062C41.4118 10.9638 41.4118 11.0361 41.4468 11.0937L42.3572 12.5903L41.5088 12.7969L41.3021 13.6454L39.8056 12.735C39.748 12.7 39.6756 12.7 39.618 12.735L38.1214 13.6454L37.9148 12.7969L37.0664 12.5903L37.9768 11.0937C38.0118 11.0361 38.0118 10.9638 37.9768 10.9062L37.0664 9.40961L37.9148 9.20296L38.1214 8.35457L39.618 9.26492C39.6756 9.29996 39.748 9.29996 39.8056 9.26492L41.3021 8.35457L41.5088 9.203L42.3572 9.40964L41.4468 10.9062Z" fill="#F4AD47"/>
<path d="M30.5067 9.54348C30.3607 9.54348 30.23 9.63567 30.1811 9.77352C30.1764 9.78692 30.1726 9.80063 30.1699 9.81453L29.7166 12.1063C29.6852 12.265 29.7884 12.4191 29.9471 12.4506C30.1059 12.482 30.2599 12.3787 30.2914 12.22L30.5585 10.8695L30.9844 12.2455C31.0323 12.4001 31.1964 12.4865 31.3509 12.4388C31.5055 12.3909 31.592 12.2268 31.5442 12.0723L30.8364 9.78547C30.8355 9.78293 30.8347 9.78035 30.8339 9.77782C30.7866 9.63864 30.656 9.5445 30.509 9.54356C30.5083 9.54348 30.5075 9.54348 30.5067 9.54348Z" fill="#F4AD47"/>
<path d="M32.0193 9.54371C31.8733 9.54371 31.7427 9.63582 31.6937 9.77356C31.6924 9.77746 31.691 9.78141 31.6898 9.78539L30.9838 12.0772C30.9361 12.2318 31.0229 12.3957 31.1775 12.4434C31.3322 12.491 31.4961 12.4043 31.5438 12.2497L31.9688 10.8699L32.2368 12.2163C32.2684 12.375 32.4226 12.478 32.5813 12.4465C32.74 12.4149 32.843 12.2607 32.8114 12.102L32.3563 9.81516C32.3538 9.8025 32.3505 9.79004 32.3463 9.77785C32.2989 9.63879 32.1684 9.54473 32.0215 9.54379C32.0208 9.54371 32.02 9.54371 32.0193 9.54371Z" fill="#F4AD47"/>
<path d="M39.8859 16.9791L40.9966 12.4187C41.0126 12.3531 41.0637 12.302 41.1293 12.286L45.6897 11.1753C45.8734 11.1306 45.8734 10.8694 45.6897 10.8246L41.1293 9.7139C41.0638 9.69792 41.0126 9.64679 40.9966 9.58124L39.8859 5.02087C39.8412 4.8372 39.58 4.8372 39.5352 5.02087L38.4245 9.58128C38.4086 9.64679 38.3574 9.69796 38.2919 9.71394L33.7315 10.8246C33.5478 10.8693 33.5478 11.1305 33.7315 11.1753L38.2919 12.286C38.3574 12.302 38.4086 12.3531 38.4246 12.4187L39.5353 16.9791C39.58 17.1627 39.8412 17.1627 39.8859 16.9791Z" fill="#A21313"/>
<path d="M45.6911 11.1753L41.1307 12.286C41.0652 12.302 41.014 12.3531 40.998 12.4186L39.8873 16.9791C39.8426 17.1627 39.5814 17.1627 39.5366 16.9791L39.3477 16.2031L40.4121 11.8327C40.428 11.7672 40.4792 11.716 40.5447 11.7L44.9152 10.6356L45.6911 10.8246C45.8748 10.8693 45.8748 11.1306 45.6911 11.1753Z" fill="#A21313"/>
<path d="M40.5446 9.12801C40.4791 9.11203 40.4279 9.0609 40.412 8.99535L39.4902 5.21086L39.5365 5.02086C39.5812 4.83719 39.8425 4.83719 39.8872 5.02086L40.9091 9.2168L40.5446 9.12801Z" fill="#A21313"/>
<path d="M47.7676 18.7627C47.6926 18.7627 47.6176 18.7913 47.5604 18.8485C47.446 18.9629 47.446 19.1484 47.5604 19.2628L49.2117 20.9141C49.3262 21.0285 49.5116 21.0285 49.626 20.9141C49.7404 20.7997 49.7404 20.6141 49.626 20.4998L47.9748 18.8485C47.9176 18.7913 47.8426 18.7627 47.7676 18.7627Z" fill="#A21313"/>
<path d="M31.6552 18.7627C31.5802 18.7627 31.5052 18.7913 31.448 18.8485L29.7967 20.4998C29.6823 20.6142 29.6823 20.7997 29.7967 20.9141C29.9112 21.0285 30.0967 21.0285 30.2111 20.9141L31.8624 19.2628C31.9768 19.1484 31.9768 18.9629 31.8624 18.8485C31.8051 18.7913 31.7301 18.7627 31.6552 18.7627Z" fill="#A21313"/>
<path d="M49.4189 1.00001C49.3439 1.00001 49.2689 1.0286 49.2117 1.08583L47.5604 2.73707C47.446 2.85149 47.446 3.037 47.5604 3.15137C47.6749 3.26579 47.8603 3.26579 47.9748 3.15137L49.626 1.50012C49.7404 1.38571 49.7404 1.2002 49.626 1.08583C49.5688 1.02864 49.4938 1.00001 49.4189 1.00001Z" fill="#A21313"/>
<path d="M30.0039 1.00001C29.9289 1.00001 29.854 1.0286 29.7967 1.08583C29.6823 1.20024 29.6823 1.38575 29.7967 1.50012L31.448 3.15137C31.5625 3.26579 31.748 3.26579 31.8623 3.15137C31.9767 3.03696 31.9767 2.85145 31.8623 2.73707L30.2111 1.08583C30.1539 1.02864 30.0789 1.00001 30.0039 1.00001Z" fill="#A21313"/>
</g>
<defs>
<clipPath id="clip0_243_32663">
<rect width="20" height="20" fill="white" transform="matrix(1 0 0 -1 29.7109 21)"/>
</clipPath>
</defs>
</svg>
