<svg width="80" height="80" viewBox="0 0 80 80" fill="none" xmlns="http://www.w3.org/2000/svg">
<g clip-path="url(#clip0_243_32700)">
<path d="M58.753 78.6562C69.837 78.6562 78.8223 69.6708 78.8223 58.5868C78.8223 47.5028 69.837 38.5175 58.753 38.5175C47.669 38.5175 38.6836 47.5028 38.6836 58.5868C38.6836 69.6708 47.669 78.6562 58.753 78.6562Z" fill="#FFCC00"/>
<path d="M58.7529 38.5166C58.0909 38.5166 57.4365 38.5496 56.791 38.6122C66.9545 39.5983 74.8991 48.1643 74.8991 58.5866C74.8991 69.0089 66.9546 77.5746 56.791 78.5607C57.4366 78.6233 58.0909 78.6563 58.7529 78.6563C69.8373 78.6563 78.8229 69.6707 78.8229 58.5863C78.8229 47.5019 69.8371 38.5166 58.7529 38.5166Z" fill="#FFCC00"/>
<path d="M65.3865 10.2684V14.042C65.3865 15.9716 63.8223 17.5358 61.8927 17.5358C59.9632 17.5358 58.399 15.9716 58.399 14.042V10.2684H16.7377V14.042C16.7377 15.9716 15.1735 17.5358 13.244 17.5358C11.3145 17.5358 9.75023 15.9716 9.75023 14.042V10.2684H1.17773V67.1637H40.6048C39.3734 64.5628 38.6835 61.6553 38.6835 58.5866C38.6835 47.5022 47.6691 38.5166 58.7535 38.5166C64.7876 38.5166 70.1988 41.1798 73.8781 45.3944V10.2684H65.3865Z" fill="#EFE7E4"/>
<path d="M73.876 23.009H1.2168V26.9328H73.876V23.009Z" fill="#D8D1D0"/>
<path d="M13.2438 17.5357C11.3142 17.5357 9.75 15.9714 9.75 14.0419V4.83738C9.75 2.90785 11.3142 1.34363 13.2438 1.34363C15.1733 1.34363 16.7375 2.90785 16.7375 4.83738V14.0419C16.7375 15.9714 15.1731 17.5357 13.2438 17.5357Z" fill="#FFCC00"/>
<path d="M13.2434 1.34363C12.6787 1.34363 12.1459 1.47847 11.6738 1.71628C12.8149 2.29113 13.598 3.47253 13.598 4.83738V14.0419C13.598 15.4068 12.8149 16.5882 11.6738 17.163C12.1459 17.4008 12.6787 17.5357 13.2434 17.5357C15.1729 17.5357 16.7371 15.9714 16.7371 14.0419V4.83738C16.7371 2.90785 15.1727 1.34363 13.2434 1.34363Z" fill="#FFCC00"/>
<path d="M61.8922 17.5357C59.9627 17.5357 58.3984 15.9714 58.3984 14.0419V4.83738C58.3984 2.90785 59.9627 1.34363 61.8922 1.34363C63.8217 1.34363 65.3859 2.90785 65.3859 4.83738V14.0419C65.3858 15.9714 63.8216 17.5357 61.8922 17.5357Z" fill="#FFCC00"/>
<path d="M61.8918 1.34363C61.3271 1.34363 60.7943 1.47832 60.3223 1.71628C61.4634 2.29113 62.2465 3.47253 62.2465 4.83738V14.0419C62.2465 15.4068 61.4634 16.5882 60.3223 17.163C60.7941 17.4008 61.3271 17.5357 61.8918 17.5357C63.8213 17.5357 65.3855 15.9714 65.3855 14.0419V4.83738C65.3854 2.90785 63.8212 1.34363 61.8918 1.34363Z" fill="#FFCC00"/>
<path d="M20.5136 30.932H12.9297V38.5159H20.5136V30.932Z" fill="#465A65"/>
<path d="M34.4101 30.932H26.8262V38.5159H34.4101V30.932Z" fill="#465A65"/>
<path d="M48.3085 30.932H40.7246V38.5159H48.3085V30.932Z" fill="#465A65"/>
<path d="M62.207 30.932H54.623V38.5159H62.207V30.932Z" fill="#465A65"/>
<path d="M20.5136 47.214H12.9297V54.7979H20.5136V47.214Z" fill="#465A65"/>
<path d="M34.4101 47.214H26.8262V54.7979H34.4101V47.214Z" fill="#465A65"/>
<path d="M65.3851 10.2684V14.042C65.3851 15.9716 63.8209 17.5358 61.8913 17.5358C59.9618 17.5358 58.3976 15.9716 58.3976 14.042V10.2684H16.7363V14.042C16.7363 15.9716 15.1721 17.5358 13.2426 17.5358C11.313 17.5358 9.74883 15.9716 9.74883 14.042V10.2684H1.2168V23.0098H73.9171V10.2684H65.3851Z" fill="#A21313"/>
<path d="M73.9168 19.0853H1.2168V23.0091H73.9168V19.0853Z" fill="#6D1E21"/>
<path d="M56.0102 66.2109C55.3705 66.2109 54.7568 65.9567 54.3044 65.5045L48.8179 60.0179C47.8758 59.0759 47.8758 57.5484 48.8179 56.6064C49.7599 55.6643 51.2872 55.6643 52.2293 56.6064L56.01 60.3872L65.2774 51.1198C66.2194 50.1778 67.7468 50.1776 68.6888 51.1197C69.6308 52.0617 69.6308 53.5892 68.6888 54.5312L57.7158 65.5042C57.2635 65.9567 56.6499 66.2109 56.0102 66.2109Z" fill="#00B76C"/>
<path d="M56.0096 67.3882C56.9683 67.3882 57.8697 67.0147 58.5477 66.3369L69.5207 55.3639C70.1986 54.6861 70.5721 53.7846 70.5721 52.8257C70.5721 51.8671 70.1986 50.9655 69.5207 50.2874C68.1214 48.888 65.8443 48.8881 64.4446 50.2875L56.0097 58.7225L53.0613 55.7739C51.6619 54.3747 49.3847 54.3747 47.9852 55.7739C46.5857 57.1735 46.5857 59.4508 47.9852 60.8503L53.4718 66.3369C54.1494 67.0147 55.0508 67.3882 56.0096 67.3882ZM49.2879 58.3122C49.2879 57.9822 49.4163 57.6722 49.6496 57.4389C49.8904 57.1982 50.2066 57.0777 50.5229 57.0777C50.8391 57.0777 51.1554 57.1982 51.3961 57.4389L55.1769 61.2199C55.3975 61.4405 55.6971 61.5646 56.0093 61.5646C56.3214 61.5646 56.621 61.4405 56.8416 61.2199L66.1088 51.9525C66.5904 51.4708 67.3739 51.4708 67.8554 51.9522C68.0888 52.1856 68.2172 52.496 68.2172 52.8257C68.2172 53.1557 68.0886 53.4657 67.8555 53.6989L56.8824 64.6721C56.6491 64.9053 56.3389 65.0338 56.0091 65.0338C55.6793 65.0338 55.3691 64.9053 55.1358 64.6721L49.6493 59.1855C49.4164 58.9522 49.2879 58.6421 49.2879 58.3122Z" fill="black"/>
<path d="M75.0545 44.9755V35.6408C75.0545 34.9905 74.5275 34.4636 73.8773 34.4636C73.2272 34.4636 72.7002 34.9905 72.7002 35.6408V42.5594C71.1314 41.1944 69.3795 40.0745 67.5047 39.2267C67.4345 39.1948 67.3636 39.1645 67.293 39.1334C67.2214 39.102 67.1502 39.07 67.0783 39.0394C66.9525 38.9855 66.8259 38.9338 66.6989 38.8823C66.6828 38.8758 66.6667 38.8691 66.6505 38.8625C65.6 38.4403 64.5083 38.1002 63.3833 37.8491V30.9322C63.3833 30.2819 62.8562 29.755 62.2061 29.755H54.6217C53.9716 29.755 53.4445 30.2819 53.4445 30.9322V38.0045C49.7788 38.943 46.42 40.8542 43.6813 43.6098C43.223 44.0711 43.2253 44.8166 43.6864 45.2747C44.1475 45.7327 44.8928 45.7305 45.3512 45.2695C48.9245 41.6738 53.6839 39.6934 58.7527 39.6934C58.9206 39.6934 59.0883 39.6958 59.2556 39.7002C59.2848 39.7009 59.3139 39.7027 59.3431 39.7034C59.4831 39.7078 59.6231 39.713 59.7627 39.7203C59.7848 39.7214 59.8066 39.7233 59.8288 39.7245C59.9769 39.733 60.1248 39.7427 60.2727 39.7545C60.2833 39.7555 60.2941 39.7564 60.3048 39.7573C62.4798 39.9366 64.5909 40.4902 66.5506 41.3786C66.6181 41.4094 66.6848 41.4414 66.752 41.4728C66.8209 41.505 66.89 41.537 66.9586 41.5702C67.0791 41.6286 67.1991 41.6881 67.3181 41.7491C67.3298 41.755 67.3417 41.7608 67.3534 41.7669C73.4589 44.9016 77.6458 51.2642 77.6458 58.5863C77.6458 69.0038 69.1706 77.4791 58.7528 77.4791C48.9877 77.4791 40.9291 70.032 39.9581 60.5188C39.9577 60.5142 39.9573 60.5097 39.9569 60.5052C39.9419 60.3556 39.9284 60.2053 39.9167 60.0548C39.9142 60.0225 39.9125 59.9898 39.9102 59.9575C39.9011 59.8313 39.8925 59.7052 39.8859 59.5783C39.8823 59.5067 39.88 59.435 39.8772 59.3633C39.8734 59.2719 39.8692 59.1808 39.8667 59.0892C39.8625 58.922 39.86 58.7544 39.86 58.5866C39.86 55.12 40.8067 51.7306 42.5978 48.7852C42.9356 48.2297 42.7592 47.5056 42.2038 47.1678C41.648 46.83 40.9241 47.0064 40.5864 47.562C38.5709 50.8763 37.5058 54.6884 37.5058 58.5866C37.5058 58.7611 37.5083 58.9352 37.5123 59.1089C37.5133 59.1488 37.515 59.1884 37.5163 59.2281C37.5203 59.3669 37.5253 59.5056 37.532 59.6439C37.5336 59.677 37.5356 59.71 37.5375 59.7431C37.5455 59.895 37.5553 60.0469 37.5664 60.1983C37.5675 60.2127 37.5686 60.2273 37.5697 60.2419C37.7205 62.2174 38.1414 64.1397 38.83 65.9867H2.35422V46.9539C2.35422 46.3036 1.82719 45.7767 1.17703 45.7767C0.526875 45.7767 0 46.3036 0 46.9539V67.1636C0 67.8139 0.527031 68.3408 1.17719 68.3408H39.8811C43.4212 75.162 50.5514 79.8336 58.7528 79.8336C70.4686 79.8336 80 70.302 80 58.5866C80 53.4122 78.14 48.6647 75.0545 44.9755ZM61.0291 37.3394H55.7989V32.1094H61.0291V37.3394Z" fill="black"/>
<path d="M21.6907 30.9322C21.6907 30.2819 21.1637 29.755 20.5135 29.755H12.9291C12.279 29.755 11.752 30.2819 11.752 30.9322V38.5164C11.752 39.1667 12.279 39.6936 12.9291 39.6936H20.5135C21.1637 39.6936 21.6907 39.1667 21.6907 38.5164V30.9322ZM19.3363 37.3394H14.1063V32.1094H19.3365L19.3363 37.3394Z" fill="black"/>
<path d="M35.5891 30.9322C35.5891 30.2819 35.0621 29.755 34.412 29.755H26.8276C26.1774 29.755 25.6504 30.2819 25.6504 30.9322V38.5164C25.6504 39.1667 26.1774 39.6936 26.8276 39.6936H34.412C35.0621 39.6936 35.5891 39.1667 35.5891 38.5164V30.9322ZM33.2349 37.3394H28.0048V32.1094H33.2349V37.3394Z" fill="black"/>
<path d="M40.7241 29.755C40.0739 29.755 39.5469 30.2819 39.5469 30.9322V38.5164C39.5469 39.1667 40.0739 39.6936 40.7241 39.6936H48.3084C48.9586 39.6936 49.4856 39.1667 49.4856 38.5164V30.9322C49.4856 30.2819 48.9586 29.755 48.3084 29.755H40.7241ZM47.1314 37.3394H41.9013V32.1094H47.1314V37.3394Z" fill="black"/>
<path d="M20.5135 46.0374H12.9291C12.279 46.0374 11.752 46.5642 11.752 47.2145V54.7989C11.752 55.4492 12.279 55.9761 12.9291 55.9761H20.5135C21.1637 55.9761 21.6907 55.4492 21.6907 54.7989V47.2145C21.6907 46.5642 21.1637 46.0374 20.5135 46.0374ZM19.3363 53.6217H14.1063V48.3916H19.3365L19.3363 53.6217Z" fill="black"/>
<path d="M34.412 46.0374H26.8276C26.1774 46.0374 25.6504 46.5642 25.6504 47.2145V54.7989C25.6504 55.4492 26.1774 55.9761 26.8276 55.9761H34.412C35.0621 55.9761 35.5891 55.4492 35.5891 54.7989V47.2145C35.589 46.5642 35.0621 46.0374 34.412 46.0374ZM33.2348 53.6217H28.0046V48.3916H33.2348V53.6217Z" fill="black"/>
<path d="M1.17719 43.4225C1.82734 43.4225 2.35437 42.8954 2.35437 42.2453V24.187H72.7005V30.9323C72.7005 31.5826 73.2275 32.1095 73.8776 32.1095C74.5278 32.1095 75.0548 31.5826 75.0548 30.9323V23.3118C75.0805 23.2153 75.0953 23.1145 75.0953 23.01V10.2686C75.0953 9.61826 74.5683 9.09138 73.9181 9.09138H73.8776H66.5634V4.83748C66.5634 2.26185 64.468 0.166382 61.8925 0.166382C59.3169 0.166382 57.2216 2.26185 57.2216 4.83748V9.09154H17.9144V4.83748C17.9144 2.26185 15.8189 0.166382 13.2434 0.166382C10.668 0.166382 8.5725 2.26185 8.5725 4.83748V9.09154H1.21766H1.17719C0.527031 9.09154 0 9.61841 0 10.2686V42.2454C0 42.8956 0.527031 43.4225 1.17719 43.4225ZM59.5758 4.83748C59.5758 3.55998 60.6152 2.52076 61.8923 2.52076C63.1698 2.52076 64.2089 3.56013 64.2089 4.83748V14.042C64.2089 14.2017 64.1926 14.3576 64.1619 14.5083C63.9455 15.5629 63.01 16.3587 61.8923 16.3587C60.6148 16.3587 59.5758 15.3194 59.5758 14.042V4.83748ZM10.9269 4.83748C10.9269 3.55998 11.9661 2.52076 13.2434 2.52076C14.5208 2.52076 15.56 3.56013 15.56 4.83748V14.042C15.56 15.3195 14.5206 16.3587 13.2434 16.3587C11.9662 16.3587 10.9269 15.3194 10.9269 14.042V4.83748ZM2.39484 11.4456H8.5725V14.0418C8.5725 16.6175 10.6678 18.7129 13.2434 18.7129C15.8191 18.7129 17.9144 16.6175 17.9144 14.0418V11.4456H57.2217V14.0418C57.2217 16.6175 59.3172 18.7129 61.8927 18.7129C64.4683 18.7129 66.5636 16.6175 66.5636 14.0418V11.4456H72.7008V21.8326H2.39484V11.4456Z" fill="black"/>
</g>
<defs>
<clipPath id="clip0_243_32700">
<rect width="80" height="80" fill="white"/>
</clipPath>
</defs>
</svg>
