<svg width="80" height="80" viewBox="0 0 80 80" fill="none" xmlns="http://www.w3.org/2000/svg">
<path d="M40 76.25C60.0203 76.25 76.25 60.0203 76.25 40C76.25 19.9797 60.0203 3.75 40 3.75C19.9797 3.75 3.75 19.9797 3.75 40C3.75 60.0203 19.9797 76.25 40 76.25Z" fill="#FFCC00"/>
<path d="M40 3.75C38.9462 3.75 37.9059 3.80487 36.875 3.893C45.9137 4.67316 54.331 8.81499 60.464 15.5002C66.5971 22.1854 69.9997 30.9277 69.9997 40C69.9997 49.0723 66.5971 57.8146 60.464 64.4998C54.331 71.185 45.9137 75.3268 36.875 76.107C37.9059 76.1951 38.9462 76.25 40 76.25C49.6141 76.25 58.8344 72.4308 65.6326 65.6326C72.4308 58.8344 76.25 49.6141 76.25 40C76.25 30.3859 72.4308 21.1656 65.6326 14.3674C58.8344 7.56919 49.6141 3.75 40 3.75Z" fill="#FFCC00"/>
<path d="M40 68.75C55.8782 68.75 68.75 55.8782 68.75 40C68.75 24.1218 55.8782 11.25 40 11.25C24.1218 11.25 11.25 24.1218 11.25 40C11.25 55.8782 24.1218 68.75 40 68.75Z" fill="#EEEEEE"/>
<path d="M17.5 40C17.5007 32.9165 20.1163 26.0825 24.8452 20.8087C29.5741 15.5348 36.0835 12.1922 43.125 11.422C42.0872 11.3086 41.044 11.2511 40 11.25C32.375 11.25 25.0624 14.279 19.6707 19.6707C14.279 25.0624 11.25 32.375 11.25 40C11.25 47.625 14.279 54.9376 19.6707 60.3293C25.0624 65.721 32.375 68.75 40 68.75C41.044 68.7489 42.0872 68.6914 43.125 68.578C36.0835 67.8078 29.5741 64.4652 24.8452 59.1913C20.1163 53.9175 17.5007 47.0835 17.5 40Z" fill="#E0E0E0"/>
<path d="M55.625 24.375C55.442 24.1919 55.2069 24.0698 54.9518 24.0253C54.6968 23.9808 54.4342 24.0161 54.2 24.1264L33.75 33.75L46.25 46.25L55.8736 25.8C55.9839 25.5658 56.0192 25.3032 55.9747 25.0482C55.9302 24.7932 55.8081 24.5581 55.625 24.375Z" fill="#D46366"/>
<path d="M24.3762 55.625C24.5593 55.8081 24.7944 55.9302 25.0494 55.9747C25.3045 56.0192 25.567 55.9839 25.8012 55.8736L46.2512 46.25L33.7512 33.75L24.1276 54.2C24.0173 54.4342 23.982 54.6968 24.0265 54.9518C24.071 55.2069 24.1932 55.442 24.3762 55.625Z" fill="#64B5F6"/>
<path d="M55.875 25.8L46.25 46.25L40 40L55.625 24.375C55.8079 24.5582 55.9299 24.7932 55.9747 25.0481C56.0194 25.303 55.9846 25.5655 55.875 25.8Z" fill="#A21313"/>
<path d="M46.25 46.25L25.8 55.875C25.5655 55.9846 25.303 56.0194 25.0481 55.9747C24.7932 55.9299 24.5582 55.8079 24.375 55.625L40 40L46.25 46.25Z" fill="#42A5F5"/>
<path d="M40 43.75C42.0711 43.75 43.75 42.0711 43.75 40C43.75 37.9289 42.0711 36.25 40 36.25C37.9289 36.25 36.25 37.9289 36.25 40C36.25 42.0711 37.9289 43.75 40 43.75Z" fill="#EEEEEE"/>
<path d="M40 36.25C39.3399 36.2535 38.6926 36.4331 38.125 36.7701C38.6946 37.0954 39.168 37.5654 39.4973 38.1327C39.8266 38.6999 40 39.3441 40 40C40 40.6559 39.8266 41.3001 39.4973 41.8673C39.168 42.4346 38.6946 42.9046 38.125 43.2299C38.6926 43.5669 39.3399 43.7465 40 43.75C40.9946 43.75 41.9484 43.3549 42.6516 42.6516C43.3549 41.9484 43.75 40.9946 43.75 40C43.75 39.0054 43.3549 38.0516 42.6516 37.3483C41.9484 36.6451 40.9946 36.25 40 36.25Z" fill="#E0E0E0"/>
<path d="M40 2.5C32.5832 2.5 25.333 4.69934 19.1661 8.81989C12.9993 12.9404 8.19282 18.7971 5.35453 25.6494C2.51625 32.5016 1.77362 40.0416 3.22057 47.3159C4.66751 54.5902 8.23904 61.272 13.4835 66.5165C18.728 71.761 25.4098 75.3325 32.6841 76.7794C39.9584 78.2264 47.4984 77.4838 54.3506 74.6455C61.2029 71.8072 67.0596 67.0007 71.1801 60.8339C75.3007 54.667 77.5 47.4168 77.5 40C77.4888 30.0578 73.5343 20.5261 66.5041 13.4959C59.4739 6.46574 49.9422 2.51125 40 2.5ZM40 75C33.0777 75 26.3108 72.9473 20.5551 69.1014C14.7993 65.2556 10.3133 59.7893 7.66423 53.3939C5.01517 46.9985 4.32205 39.9612 5.67253 33.1718C7.02301 26.3825 10.3564 20.1461 15.2513 15.2513C20.1461 10.3564 26.3825 7.023 33.1719 5.67251C39.9612 4.32203 46.9985 5.01515 53.3939 7.66422C59.7893 10.3133 65.2556 14.7993 69.1014 20.555C72.9473 26.3108 75 33.0777 75 40C74.9896 49.2794 71.2988 58.1757 64.7373 64.7373C58.1758 71.2988 49.2794 74.9896 40 75ZM40 10C34.0666 10 28.2664 11.7595 23.3329 15.0559C18.3994 18.3524 14.5543 23.0377 12.2836 28.5195C10.013 34.0013 9.4189 40.0333 10.5765 45.8527C11.734 51.6721 14.5912 57.0176 18.7868 61.2132C22.9824 65.4088 28.3279 68.266 34.1473 69.4236C39.9667 70.5811 45.9987 69.987 51.4805 67.7164C56.9623 65.4458 61.6477 61.6006 64.9441 56.6671C68.2405 51.7336 70 45.9334 70 40C69.9909 32.0463 66.8273 24.421 61.2032 18.7968C55.579 13.1727 47.9537 10.0091 40 10ZM40 67.5C34.561 67.5 29.2442 65.8872 24.7218 62.8654C20.1995 59.8437 16.6747 55.5488 14.5933 50.5238C12.5119 45.4988 11.9673 39.9695 13.0284 34.635C14.0895 29.3005 16.7086 24.4005 20.5546 20.5546C24.4005 16.7086 29.3006 14.0895 34.635 13.0284C39.9695 11.9673 45.4988 12.5119 50.5238 14.5933C55.5488 16.6747 59.8437 20.1995 62.8654 24.7218C65.8872 29.2442 67.5 34.561 67.5 40C67.4918 47.2909 64.5919 54.2809 59.4364 59.4364C54.2809 64.5918 47.2909 67.4918 40 67.5ZM56.5088 23.4912C56.1434 23.1272 55.6748 22.8843 55.1666 22.7957C54.6585 22.707 54.1354 22.7768 53.6683 22.9956L33.2183 32.619C32.9552 32.743 32.7435 32.9547 32.6195 33.2178L22.9961 53.6678C22.7772 54.1347 22.7075 54.6578 22.7965 55.1658C22.8855 55.6738 23.1289 56.142 23.4935 56.5068C23.8581 56.8715 24.3262 57.115 24.8342 57.2042C25.3421 57.2934 25.8652 57.224 26.3323 57.0052L46.7823 47.3812C47.0454 47.257 47.2571 47.0451 47.381 46.7819L57.0044 26.3319C57.2234 25.8648 57.2933 25.3416 57.2047 24.8334C57.116 24.3252 56.873 23.8566 56.5088 23.4912ZM25.2576 54.7326L34.1238 35.8913L35.7085 37.4761C35.2496 38.2383 35.0048 39.1103 35 40C35.0014 41.3257 35.5286 42.5966 36.466 43.534C37.4034 44.4714 38.6744 44.9986 40 45C40.8898 44.9952 41.7618 44.7505 42.524 44.2915L44.1078 45.875L25.2576 54.7326ZM40 42.5C39.5056 42.5 39.0222 42.3534 38.6111 42.0787C38.2 41.804 37.8795 41.4135 37.6903 40.9567C37.5011 40.4999 37.4516 39.9972 37.548 39.5123C37.6445 39.0273 37.8826 38.5819 38.2322 38.2322C38.5819 37.8826 39.0273 37.6445 39.5123 37.548C39.9972 37.4516 40.4999 37.5011 40.9567 37.6903C41.4135 37.8795 41.804 38.2 42.0787 38.6111C42.3534 39.0222 42.5 39.5055 42.5 40C42.4993 40.6628 42.2356 41.2982 41.7669 41.7669C41.2983 42.2356 40.6628 42.4992 40 42.5ZM45.8761 44.1085L44.2916 42.524C44.7506 41.7617 44.9953 40.8897 45 40C44.9985 38.6744 44.4713 37.4035 43.5339 36.4661C42.5965 35.5288 41.3256 35.0015 40 35C39.1103 35.0048 38.2384 35.2495 37.4761 35.7085L35.8913 34.1237L54.7326 25.2576L54.7413 25.2588L54.7424 25.2674L45.8761 44.1085ZM38.75 21.25V16.25C38.75 15.9185 38.8817 15.6005 39.1161 15.3661C39.3505 15.1317 39.6685 15 40 15C40.3315 15 40.6495 15.1317 40.8839 15.3661C41.1183 15.6005 41.25 15.9185 41.25 16.25V21.25C41.25 21.5815 41.1183 21.8995 40.8839 22.1339C40.6495 22.3683 40.3315 22.5 40 22.5C39.6685 22.5 39.3505 22.3683 39.1161 22.1339C38.8817 21.8995 38.75 21.5815 38.75 21.25ZM41.25 58.75V63.75C41.25 64.0815 41.1183 64.3995 40.8839 64.6339C40.6495 64.8683 40.3315 65 40 65C39.6685 65 39.3505 64.8683 39.1161 64.6339C38.8817 64.3995 38.75 64.0815 38.75 63.75V58.75C38.75 58.4185 38.8817 58.1005 39.1161 57.8661C39.3505 57.6317 39.6685 57.5 40 57.5C40.3315 57.5 40.6495 57.6317 40.8839 57.8661C41.1183 58.1005 41.25 58.4185 41.25 58.75ZM65 40C65 40.3315 64.8683 40.6495 64.6339 40.8839C64.3995 41.1183 64.0815 41.25 63.75 41.25H58.75C58.4185 41.25 58.1006 41.1183 57.8661 40.8839C57.6317 40.6495 57.5 40.3315 57.5 40C57.5 39.6685 57.6317 39.3505 57.8661 39.1161C58.1006 38.8817 58.4185 38.75 58.75 38.75H63.75C64.0815 38.75 64.3995 38.8817 64.6339 39.1161C64.8683 39.3505 65 39.6685 65 40ZM22.5 40C22.5 40.3315 22.3683 40.6495 22.1339 40.8839C21.8995 41.1183 21.5815 41.25 21.25 41.25H16.25C15.9185 41.25 15.6006 41.1183 15.3661 40.8839C15.1317 40.6495 15 40.3315 15 40C15 39.6685 15.1317 39.3505 15.3661 39.1161C15.6006 38.8817 15.9185 38.75 16.25 38.75H21.25C21.5815 38.75 21.8995 38.8817 22.1339 39.1161C22.3683 39.3505 22.5 39.6685 22.5 40ZM57.6776 55.9094C57.7961 56.0249 57.8905 56.1628 57.9553 56.3151C58.0201 56.4674 58.054 56.631 58.055 56.7965C58.0561 56.962 58.0242 57.126 57.9614 57.2791C57.8985 57.4322 57.8059 57.5713 57.6889 57.6883C57.5719 57.8053 57.4328 57.8979 57.2797 57.9607C57.1266 58.0236 56.9626 58.0554 56.7971 58.0544C56.6316 58.0533 56.468 58.0194 56.3157 57.9546C56.1634 57.8899 56.0255 57.7955 55.91 57.677L52.3743 54.1419C52.2558 54.0264 52.1614 53.8885 52.0966 53.7362C52.0318 53.5839 51.9979 53.4203 51.9969 53.2548C51.9958 53.0893 52.0277 52.9253 52.0905 52.7722C52.1534 52.6191 52.246 52.48 52.363 52.363C52.48 52.246 52.6191 52.1533 52.7722 52.0905C52.9253 52.0277 53.0893 51.9958 53.2548 51.9969C53.4203 51.9979 53.5839 52.0318 53.7362 52.0966C53.8885 52.1614 54.0264 52.2558 54.1419 52.3742L57.6776 55.9094ZM22.3224 24.09C22.0929 23.8546 21.9653 23.5382 21.9674 23.2095C21.9695 22.8807 22.101 22.566 22.3335 22.3335C22.566 22.101 22.8807 21.9695 23.2095 21.9674C23.5383 21.9653 23.8546 22.0929 24.09 22.3224L27.6258 25.8581C27.7443 25.9736 27.8386 26.1116 27.9034 26.2638C27.9682 26.4161 28.0021 26.5797 28.0031 26.7452C28.0042 26.9107 27.9724 27.0747 27.9095 27.2278C27.8467 27.3809 27.7541 27.52 27.637 27.637C27.52 27.754 27.3809 27.8467 27.2278 27.9095C27.0748 27.9723 26.9107 28.0042 26.7452 28.0031C26.5798 28.0021 26.4161 27.9682 26.2638 27.9034C26.1116 27.8386 25.9737 27.7442 25.8581 27.6257L22.3224 24.09Z" fill="black"/>
</svg>
