<svg width="80" height="80" viewBox="0 0 80 80" fill="none" xmlns="http://www.w3.org/2000/svg">
<g clip-path="url(#clip0_243_32677)">
<path d="M72.218 77.4835H50.0593C49.3438 77.4835 48.7637 76.9035 48.7637 76.1878V39.6127H73.5135V76.188C73.5137 76.9035 72.9337 77.4835 72.218 77.4835Z" fill="#FFCC00"/>
<path d="M67.9304 39.6127V76.188C67.9304 76.9035 67.3504 77.4835 66.6348 77.4835H72.2187C72.9341 77.4835 73.5143 76.9035 73.5143 76.188V39.6127H67.9304Z" fill="#FFCC00"/>
<path d="M11.4659 39.6127H6.48633V76.188C6.48633 76.9035 7.06633 77.4836 7.78195 77.4836H10.1704C10.8859 77.4836 11.466 76.9036 11.466 76.188L11.4659 39.6127Z" fill="#FFCC00"/>
<path d="M77.2986 42.5638H2.70141C1.85672 42.5638 1.17188 41.879 1.17188 41.0343V38.1912C1.17188 37.3465 1.85672 36.6616 2.70141 36.6616H77.2984C78.1431 36.6616 78.828 37.3465 78.828 38.1912V41.0343C78.8281 41.879 78.1433 42.5638 77.2986 42.5638Z" fill="#FBA615"/>
<path d="M51.008 30.7669H8.33297C7.49531 30.7669 6.81641 30.0879 6.81641 29.2504V4.03316C6.81641 3.19551 7.49547 2.5166 8.33297 2.5166H51.0078C51.8455 2.5166 52.5244 3.19566 52.5244 4.03316V29.2504C52.5245 30.0879 51.8455 30.7669 51.008 30.7669Z" fill="#97E4F9"/>
<path d="M6.81641 29.2503C6.81641 30.088 7.49547 30.7669 8.33297 30.7669H51.0078C51.8455 30.7669 52.5244 30.0878 52.5244 29.2503V25.1071H6.81641V29.2503Z" fill="#F9F5F5"/>
<path d="M52.5262 29.2503V25.1071H46.9423V29.2503C46.9423 30.088 46.2633 30.7669 45.4258 30.7669H51.0097C51.8472 30.7669 52.5262 30.0878 52.5262 29.2503Z" fill="#EAEAEA"/>
<path d="M72.218 77.4834H50.0593C49.3438 77.4834 48.7637 76.9034 48.7637 76.1878V60.0236H73.5135V76.1878C73.5137 76.9034 72.9337 77.4834 72.218 77.4834Z" fill="#FBA615"/>
<path d="M67.9304 60.0236V76.1878C67.9304 76.9032 67.3504 77.4832 66.6348 77.4832H72.2187C72.9341 77.4832 73.5143 76.9032 73.5143 76.1878V60.0236H67.9304Z" fill="#FFCC00"/>
<path d="M36.118 51.5804H23.226C20.0302 51.5804 17.4395 48.9897 17.4395 45.7939V35.3537C17.4395 28.5978 22.9162 23.1212 29.672 23.1212C36.4279 23.1212 41.9045 28.5979 41.9045 35.3537V45.7939C41.9046 48.9898 39.3138 51.5804 36.118 51.5804Z" fill="#A21313"/>
<path d="M29.6709 23.1212C28.7098 23.1212 27.7761 23.2356 26.8789 23.4451C32.2888 24.7087 36.3195 29.5589 36.3195 35.3537V45.7939C36.3195 48.9897 33.7288 51.5804 30.533 51.5804H36.1169C39.3127 51.5804 41.9034 48.9897 41.9034 45.7939V35.3537C41.9036 28.5979 36.4269 23.1212 29.6709 23.1212Z" fill="#6D1E21"/>
<path d="M38.8177 62.58H20.5242C18.4053 62.58 16.6875 60.8621 16.6875 58.7432C16.6875 58.0468 17.252 57.4823 17.9484 57.4823H41.3936C42.09 57.4823 42.6545 58.0468 42.6545 58.7432C42.6544 60.8621 40.9367 62.58 38.8177 62.58Z" fill="#A21313"/>
<path d="M41.3938 57.4823H37.0709V59.7923C37.0709 61.3318 35.8227 62.58 34.2832 62.58H38.818C40.937 62.58 42.6548 60.8621 42.6548 58.7432C42.6546 58.0468 42.0901 57.4823 41.3938 57.4823Z" fill="#6D1E21"/>
<path d="M51.0088 2.5166H46.9414V25.1071H52.5253V4.03316C52.5253 3.19551 51.8463 2.5166 51.0088 2.5166Z" fill="#62D8F9"/>
<path d="M58.002 46.9658C57.3548 46.9658 56.8301 47.4905 56.8301 48.1377C56.8301 48.7849 57.3548 49.3096 58.002 49.3096H64.2748C64.922 49.3096 65.4466 48.7849 65.4466 48.1377C65.4466 47.4905 64.922 46.9658 64.2748 46.9658H58.002Z" fill="black"/>
<path d="M58.002 66.7677H64.2748C64.922 66.7677 65.4466 66.243 65.4466 65.5958C65.4466 64.9486 64.922 64.424 64.2748 64.424H58.002C57.3548 64.424 56.8301 64.9486 56.8301 65.5958C56.8301 66.243 57.3548 66.7677 58.002 66.7677Z" fill="black"/>
<path d="M77.2986 35.4896H43.0759V35.3538C43.0759 34.1738 42.9213 33.0296 42.6336 31.9388H51.0091C51.0495 31.9388 51.0897 31.9368 51.1291 31.9327C52.5556 31.8693 53.6975 30.6922 53.6975 29.2502V4.03316C53.6975 2.55082 52.4914 1.34473 51.0091 1.34473H8.33391C6.85156 1.34473 5.64547 2.55082 5.64547 4.03316V29.2504C5.64547 30.6924 6.78734 31.8693 8.21391 31.9328C8.25344 31.9369 8.29344 31.9389 8.33391 31.9389H16.7092C16.4216 33.0297 16.2669 34.1739 16.2669 35.3539V35.4897H2.70141C1.21187 35.4896 0 36.7014 0 38.1911V41.0343C0 42.5238 1.21187 43.7357 2.70141 43.7357H5.31453V76.1879C5.31453 77.5485 6.42141 78.6554 7.78203 78.6554H10.1705C11.5311 78.6554 12.638 77.5485 12.638 76.1879V43.7357H16.267V45.7939C16.267 49.6308 19.3886 52.7524 23.2255 52.7524H28.4995V56.3105H17.9489C16.6075 56.3105 15.5161 57.4018 15.5161 58.7433C15.5161 61.505 17.763 63.7519 20.5247 63.7519H28.4995V72.4221H24.8872C23.8195 72.4221 22.7947 72.8746 22.0755 73.6632L19.3116 76.6938C18.8755 77.1719 18.9095 77.9132 19.3878 78.3493C19.8661 78.7855 20.6073 78.7513 21.0433 78.273L23.8072 75.2424C24.0834 74.9394 24.477 74.7657 24.887 74.7657H28.4994V77.48C28.4994 78.1272 29.0241 78.6519 29.6712 78.6519C30.3184 78.6519 30.8431 78.1272 30.8431 77.48V74.7657H34.4556C34.8656 74.7657 35.2592 74.9394 35.5356 75.2424L38.2994 78.273C38.7358 78.7518 39.4772 78.7849 39.9548 78.3493C40.4331 77.9132 40.4672 77.1719 40.0311 76.6938L37.2673 73.6632C36.548 72.8744 35.5231 72.4221 34.4556 72.4221H30.8431V63.7519H38.818C41.5797 63.7519 43.8266 61.505 43.8266 58.7433C43.8266 57.4019 42.7353 56.3105 41.3938 56.3105H30.8431V52.7524H36.1173C39.9542 52.7524 43.0758 49.6308 43.0758 45.7939V43.7357H47.5917V76.1879C47.5917 77.5485 48.6986 78.6554 50.0592 78.6554H72.218C73.5786 78.6554 74.6855 77.5485 74.6855 76.1879V54.0821C74.6855 53.4349 74.1608 52.9102 73.5136 52.9102C72.8664 52.9102 72.3417 53.4349 72.3417 54.0821V58.8518H49.9355V43.7357H72.3416V48.6133C72.3416 49.2605 72.8662 49.7852 73.5134 49.7852C74.1606 49.7852 74.6853 49.2605 74.6853 48.6133V43.7357H77.2984C78.788 43.7357 79.9998 42.5238 79.9998 41.0343V38.1911C80 36.7014 78.7881 35.4896 77.2986 35.4896ZM41.3939 58.6543C41.443 58.6543 41.483 58.6943 41.483 58.7433C41.483 60.2127 40.2875 61.4082 38.8181 61.4082H20.5247C19.0553 61.4082 17.8598 60.2127 17.8598 58.7433C17.8598 58.6943 17.8998 58.6543 17.9489 58.6543H41.3939ZM72.3417 61.1955V76.1879C72.3417 76.2561 72.2863 76.3116 72.218 76.3116H50.0592C49.9909 76.3116 49.9355 76.2561 49.9355 76.1879V61.1955H72.3417ZM8.33391 29.595C8.14391 29.595 7.98922 29.4404 7.98922 29.2502V26.2788H17.5636C18.2108 26.2788 18.7355 25.7541 18.7355 25.1069C18.7355 24.4597 18.2108 23.935 17.5636 23.935H7.98922V4.03316C7.98922 3.84316 8.14391 3.68848 8.33391 3.68848H51.0089C51.1989 3.68848 51.3536 3.84316 51.3536 4.03316V23.9352H41.8281C41.1809 23.9352 40.6562 24.4599 40.6562 25.1071C40.6562 25.7543 41.1809 26.2789 41.8281 26.2789H51.3536V29.2504C51.3536 29.4405 51.1989 29.5952 51.0089 29.5952H41.7736C39.6155 25.0782 35.0025 21.9494 29.6714 21.9494C24.3403 21.9494 19.7273 25.078 17.5692 29.5952L8.33391 29.595ZM10.2941 76.1879C10.2941 76.2561 10.2386 76.3116 10.1703 76.3116H7.78203C7.71375 76.3116 7.65828 76.2561 7.65828 76.1879V43.7357H10.2941V76.1879ZM2.70141 41.3919C2.50422 41.3919 2.34375 41.2314 2.34375 41.0343V38.1911C2.34375 37.9938 2.50422 37.8333 2.70141 37.8333H16.2669V41.3919H2.70141ZM40.7322 45.7939C40.7322 48.3385 38.662 50.4086 36.1175 50.4086H23.2255C20.6809 50.4086 18.6108 48.3385 18.6108 45.7939V35.3538C18.6108 29.2549 23.5727 24.293 29.6716 24.293C35.7705 24.293 40.7323 29.2549 40.7323 35.3538V45.7939H40.7322ZM77.6562 41.0343C77.6562 41.2314 77.4958 41.3919 77.2986 41.3919H43.0759V37.8333H77.2986C77.4958 37.8333 77.6562 37.9938 77.6562 38.1911V41.0343Z" fill="black"/>
<g clip-path="url(#clip1_243_32677)">
<path d="M61.1506 13.0998C61.1246 13.0998 61.0981 13.1033 61.0718 13.1107C60.9159 13.1542 60.8248 13.3158 60.8683 13.4716C61.3119 15.0622 62.1826 16.5079 63.3859 17.6524C64.593 18.8006 66.0858 19.5982 67.703 19.9592C67.8608 19.9946 68.0175 19.895 68.0527 19.7371C68.088 19.5792 67.9885 19.4226 67.8306 19.3873C66.3172 19.0495 64.9198 18.3028 63.7897 17.2278C62.663 16.1562 61.8479 14.8028 61.4327 13.3141C61.3966 13.1846 61.2788 13.0998 61.1506 13.0998Z" fill="#A21313"/>
<path d="M68.1234 1.96166C68.1061 1.96166 68.0886 1.96322 68.0711 1.96638C64.5766 2.59658 61.7352 5.224 60.832 8.66009C60.7908 8.81658 60.8843 8.97677 61.0409 9.0179C61.1974 9.059 61.3575 8.96552 61.3987 8.80904C62.2441 5.59244 64.904 3.1329 68.175 2.54298C68.3343 2.51427 68.4401 2.36189 68.4114 2.20267C68.3858 2.06103 68.2624 1.96166 68.1234 1.96166Z" fill="#A21313"/>
<path d="M71.7166 2.04749C71.5833 2.04749 71.4627 2.13917 71.4314 2.27468C71.395 2.43234 71.4934 2.58964 71.651 2.62601C73.1514 2.97202 74.5357 3.72109 75.6543 4.79226C76.77 5.86058 77.5778 7.20699 77.9903 8.68593C78.0337 8.84175 78.1953 8.93292 78.3512 8.88941C78.507 8.84593 78.5981 8.68433 78.5547 8.52851C78.1139 6.94835 77.2511 5.51007 76.0596 4.36906C74.8647 3.22499 73.3858 2.42484 71.7827 2.05511C71.7606 2.04995 71.7384 2.04749 71.7166 2.04749Z" fill="#A21313"/>
<path d="M78.2724 13.0998C78.1442 13.0998 78.0265 13.1846 77.9904 13.3141C77.5778 14.7931 76.7701 16.1395 75.6544 17.2079C74.5357 18.279 73.1514 19.028 71.651 19.3741C71.4934 19.4105 71.395 19.5678 71.4314 19.7254C71.4678 19.8831 71.6251 19.9814 71.7827 19.9451C73.3859 19.5754 74.8648 18.7752 76.0596 17.6311C77.2512 16.4901 78.114 15.0518 78.5548 13.4716C78.5982 13.3157 78.5071 13.1542 78.3513 13.1107C78.3249 13.1033 78.2985 13.0998 78.2724 13.0998Z" fill="#A21313"/>
<path d="M66.0606 14.8988L69.6176 12.7351C69.6752 12.7001 69.7476 12.7001 69.8052 12.7351L73.3622 14.8988C73.5237 14.997 73.7084 14.8124 73.6102 14.6508L71.4464 11.0938C71.4114 11.0362 71.4114 10.9639 71.4464 10.9063L73.6101 7.34927C73.7084 7.18775 73.5237 7.00306 73.3622 7.1013L69.8052 9.26501C69.7475 9.30005 69.6752 9.30005 69.6176 9.26501L66.0606 7.1013C65.8991 7.00306 65.7144 7.18775 65.8126 7.34927L67.9763 10.9063C68.0114 10.9639 68.0114 11.0362 67.9763 11.0938L65.8126 14.6508C65.7144 14.8124 65.8991 14.997 66.0606 14.8988Z" fill="#F4AD47"/>
<path d="M68.8965 18.0874C68.7346 18.0874 68.6035 18.2186 68.6035 18.3804V20.7027C68.6035 20.8309 68.6869 20.9442 68.8093 20.9824C68.9319 21.0205 69.0648 20.9747 69.1376 20.8692L70.2258 19.2933L70.2121 20.7042C70.2106 20.866 70.3405 20.9984 70.5023 21H70.5052C70.6657 21 70.7965 20.8707 70.7981 20.7099L70.8198 18.4616C70.8198 18.301 70.7301 18.1711 70.5913 18.1277C70.4552 18.0853 70.3117 18.138 70.2257 18.2623L69.1895 19.7629V18.3804C69.1895 18.2186 69.0583 18.0874 68.8965 18.0874Z" fill="#A21313"/>
<path d="M79.4187 9.55427H78.4473C78.2854 9.55427 78.1543 9.68544 78.1543 9.84724V12.1527C78.1543 12.3145 78.2854 12.4457 78.4473 12.4457H79.4187C79.5805 12.4457 79.7116 12.3145 79.7116 12.1527C79.7116 11.9909 79.5805 11.8597 79.4187 11.8597H78.7402V10.1402H79.4187C79.5805 10.1402 79.7116 10.009 79.7116 9.84724C79.7116 9.68544 79.5805 9.55427 79.4187 9.55427Z" fill="#F4AD47"/>
<path d="M79.347 10.707H78.4473C78.2854 10.707 78.1543 10.8382 78.1543 11C78.1543 11.1618 78.2854 11.293 78.4473 11.293H79.347C79.5089 11.293 79.64 11.1618 79.64 11C79.64 10.8382 79.5089 10.707 79.347 10.707Z" fill="#F4AD47"/>
<path d="M69.7659 1.0001C69.3726 1.0001 68.9883 1.16502 68.738 1.44119C68.6293 1.56107 68.6385 1.74635 68.7583 1.85502C68.8781 1.96365 69.0635 1.95459 69.1722 1.83467C69.3133 1.67896 69.5352 1.58599 69.7659 1.58599C69.9896 1.58599 70.1472 1.71959 70.1702 1.84881C70.2008 2.02018 69.968 2.12572 69.8665 2.16318C69.5056 2.29631 69.1852 2.43896 69.1717 2.44494C69.1576 2.45127 69.144 2.45865 69.1311 2.46709C68.885 2.62748 68.7583 2.90885 68.8002 3.20127C68.845 3.51291 69.0728 3.7667 69.3948 3.86369C70.0316 4.05564 70.5556 3.6233 70.5776 3.60482C70.7015 3.50068 70.7175 3.31592 70.6134 3.19205C70.5097 3.06869 70.326 3.05232 70.2021 3.15506C70.1931 3.16232 69.8904 3.401 69.5638 3.30268C69.4156 3.25803 69.3861 3.15865 69.3802 3.11799C69.3761 3.08881 69.374 3.01892 69.4362 2.96869C69.5182 2.93283 69.7839 2.81818 70.0694 2.71291C70.6576 2.49592 70.8052 2.07107 70.7471 1.7458C70.6699 1.31373 70.2572 1.0001 69.7659 1.0001Z" fill="#A21313"/>
<path d="M71.4468 10.9062C71.4118 10.9638 71.4118 11.0361 71.4468 11.0937L72.3572 12.5903L71.5088 12.7969L71.3021 13.6454L69.8056 12.735C69.748 12.7 69.6756 12.7 69.618 12.735L68.1214 13.6454L67.9148 12.7969L67.0664 12.5903L67.9768 11.0937C68.0118 11.0361 68.0118 10.9638 67.9768 10.9062L67.0664 9.40961L67.9148 9.20296L68.1214 8.35457L69.618 9.26492C69.6756 9.29996 69.748 9.29996 69.8056 9.26492L71.3021 8.35457L71.5088 9.203L72.3572 9.40964L71.4468 10.9062Z" fill="#F4AD47"/>
<path d="M60.5067 9.54348C60.3607 9.54348 60.23 9.63567 60.1811 9.77352C60.1764 9.78692 60.1726 9.80063 60.1699 9.81453L59.7166 12.1063C59.6852 12.265 59.7884 12.4191 59.9471 12.4506C60.1059 12.482 60.2599 12.3787 60.2914 12.22L60.5585 10.8695L60.9844 12.2455C61.0323 12.4001 61.1964 12.4865 61.3509 12.4388C61.5055 12.3909 61.592 12.2268 61.5442 12.0723L60.8364 9.78547C60.8355 9.78293 60.8347 9.78035 60.8339 9.77782C60.7866 9.63864 60.656 9.5445 60.509 9.54356C60.5083 9.54348 60.5075 9.54348 60.5067 9.54348Z" fill="#F4AD47"/>
<path d="M62.0193 9.54371C61.8733 9.54371 61.7427 9.63582 61.6937 9.77356C61.6924 9.77746 61.691 9.78141 61.6898 9.78539L60.9838 12.0772C60.9361 12.2318 61.0229 12.3957 61.1775 12.4434C61.3322 12.491 61.4961 12.4043 61.5438 12.2497L61.9688 10.8699L62.2368 12.2163C62.2684 12.375 62.4226 12.478 62.5813 12.4465C62.74 12.4149 62.843 12.2607 62.8114 12.102L62.3563 9.81516C62.3538 9.8025 62.3505 9.79004 62.3463 9.77785C62.2989 9.63879 62.1684 9.54473 62.0215 9.54379C62.0208 9.54371 62.02 9.54371 62.0193 9.54371Z" fill="#F4AD47"/>
<path d="M69.8859 16.9791L70.9966 12.4187C71.0126 12.3531 71.0637 12.302 71.1293 12.286L75.6897 11.1753C75.8734 11.1306 75.8734 10.8694 75.6897 10.8246L71.1293 9.7139C71.0638 9.69792 71.0126 9.64679 70.9966 9.58124L69.8859 5.02087C69.8412 4.8372 69.58 4.8372 69.5352 5.02087L68.4245 9.58128C68.4086 9.64679 68.3574 9.69796 68.2919 9.71394L63.7315 10.8246C63.5478 10.8693 63.5478 11.1305 63.7315 11.1753L68.2919 12.286C68.3574 12.302 68.4086 12.3531 68.4246 12.4187L69.5353 16.9791C69.58 17.1627 69.8412 17.1627 69.8859 16.9791Z" fill="#A21313"/>
<path d="M75.6911 11.1753L71.1307 12.286C71.0652 12.302 71.014 12.3531 70.998 12.4186L69.8873 16.9791C69.8426 17.1627 69.5814 17.1627 69.5366 16.9791L69.3477 16.2031L70.4121 11.8327C70.428 11.7672 70.4792 11.716 70.5447 11.7L74.9152 10.6356L75.6911 10.8246C75.8748 10.8693 75.8748 11.1306 75.6911 11.1753Z" fill="#A21313"/>
<path d="M70.5446 9.12801C70.4791 9.11203 70.4279 9.0609 70.412 8.99535L69.4902 5.21086L69.5365 5.02086C69.5812 4.83719 69.8425 4.83719 69.8872 5.02086L70.9091 9.2168L70.5446 9.12801Z" fill="#A21313"/>
<path d="M77.7676 18.7627C77.6926 18.7627 77.6176 18.7913 77.5604 18.8485C77.446 18.9629 77.446 19.1484 77.5604 19.2628L79.2117 20.9141C79.3262 21.0285 79.5116 21.0285 79.626 20.9141C79.7404 20.7997 79.7404 20.6141 79.626 20.4998L77.9748 18.8485C77.9176 18.7913 77.8426 18.7627 77.7676 18.7627Z" fill="#A21313"/>
<path d="M61.6552 18.7627C61.5802 18.7627 61.5052 18.7913 61.448 18.8485L59.7967 20.4998C59.6823 20.6142 59.6823 20.7997 59.7967 20.9141C59.9112 21.0285 60.0967 21.0285 60.2111 20.9141L61.8624 19.2628C61.9768 19.1484 61.9768 18.9629 61.8624 18.8485C61.8051 18.7913 61.7301 18.7627 61.6552 18.7627Z" fill="#A21313"/>
<path d="M79.4189 1.00001C79.3439 1.00001 79.2689 1.0286 79.2117 1.08583L77.5604 2.73707C77.446 2.85149 77.446 3.037 77.5604 3.15137C77.6749 3.26579 77.8603 3.26579 77.9748 3.15137L79.626 1.50012C79.7404 1.38571 79.7404 1.2002 79.626 1.08583C79.5688 1.02864 79.4938 1.00001 79.4189 1.00001Z" fill="#A21313"/>
<path d="M60.0039 1.00001C59.9289 1.00001 59.854 1.0286 59.7967 1.08583C59.6823 1.20024 59.6823 1.38575 59.7967 1.50012L61.448 3.15137C61.5625 3.26579 61.748 3.26579 61.8623 3.15137C61.9767 3.03696 61.9767 2.85145 61.8623 2.73707L60.2111 1.08583C60.1539 1.02864 60.0789 1.00001 60.0039 1.00001Z" fill="#A21313"/>
</g>
</g>
<defs>
<clipPath id="clip0_243_32677">
<rect width="80" height="80" fill="white"/>
</clipPath>
<clipPath id="clip1_243_32677">
<rect width="20" height="20" fill="white" transform="matrix(1 0 0 -1 59.7109 21)"/>
</clipPath>
</defs>
</svg>
