<svg width="80" height="80" viewBox="0 0 80 80" fill="none" xmlns="http://www.w3.org/2000/svg">
<path fill-rule="evenodd" clip-rule="evenodd" d="M10.8921 35.893C-7.94087 68.6884 61.2266 67.2193 50.2049 38.0481C49.3064 37.796 48.6113 35.6671 47.6591 35.539C39.188 34.3836 31.0844 35.2246 19.9345 34.7022C18.2072 34.6668 14.1288 34.574 10.8921 35.893Z" fill="#E6E6E6"/>
<path fill-rule="evenodd" clip-rule="evenodd" d="M1.18164 51.5161V70.0208C1.18164 72.0258 2.81982 73.6633 4.82605 73.6633H75.1758C77.1771 73.6633 78.8202 72.0258 78.8202 70.0208V51.5161H12.4554C11.5967 51.5161 10.8923 50.8124 10.8923 49.9536V20.5841C10.8923 17.915 8.70911 15.733 6.03882 15.733C3.36426 15.733 1.18164 17.915 1.18164 20.5841V51.5161Z" fill="#B5722F"/>
<path fill-rule="evenodd" clip-rule="evenodd" d="M17.8672 34.6936C18.0753 42.6337 23.7119 49.2987 31.4084 51.5161H45.875L49.8026 45.0012L47.0798 38.0487C46.876 40.0092 46.2205 41.3367 44.7678 42.7972C44.7324 42.8326 44.6927 42.8729 44.6531 42.9077C43.4086 44.1248 41.8363 45.0763 40.1627 45.7318C37.0627 46.9354 33.6094 47.1082 31.2046 46.015L25.5717 43.4528C21.6837 41.6864 20.0059 38.2922 19.9351 34.7028C19.4211 34.6936 18.704 34.6759 17.8672 34.6936Z" fill="#C2C7CC"/>
<path fill-rule="evenodd" clip-rule="evenodd" d="M39.9984 55.6897C39.476 61.4697 45.516 67.5336 51.4718 67.9718H69.4943C76.6812 67.9718 78.8198 66.4758 78.8198 59.6552V51.5161H41.0214C40.5874 52.7777 40.1535 53.9905 39.9984 55.6897Z" fill="#91561A"/>
<path fill-rule="evenodd" clip-rule="evenodd" d="M37.2133 21.4691L36.3496 23.3588L40.6276 25.3064C41.0878 25.5139 41.5394 25.7843 41.9777 26.1029C42.7131 24.5404 41.8806 22.0709 40.2906 21.3495L39.0419 20.7831C38.351 20.4687 37.5276 20.7739 37.2133 21.4691Z" fill="#EDA93B"/>
<path fill-rule="evenodd" clip-rule="evenodd" d="M34.9935 22.7435C34.0682 37.2913 27.2488 33.3038 25.5703 43.4521L31.2032 46.015C33.608 47.1082 37.0614 46.9354 40.1614 45.7318C41.8887 45.0592 43.5049 44.0674 44.7665 42.7972C46.2191 41.3367 46.8746 40.0092 47.0785 38.0481C47.0956 37.9114 47.1047 37.7692 47.1182 37.619C47.1536 37.1008 47.1536 36.5741 47.1182 36.0431C47.0339 34.7906 46.755 33.5248 46.3296 32.3212C45.422 29.7632 43.832 27.4701 41.9772 26.1029C41.5383 25.7843 41.0873 25.5139 40.6265 25.3064L36.3491 23.3588L34.9935 22.7435Z" fill="#FFDDA6"/>
<path fill-rule="evenodd" clip-rule="evenodd" d="M34.9925 22.7393C26.7545 18.9942 20.0224 26.9446 19.929 34.3073C19.9247 34.4397 19.9247 34.5728 19.929 34.701C19.9998 38.2917 21.6783 41.687 25.5674 43.4534C27.2459 33.302 34.0672 37.2907 34.9925 22.7393Z" fill="#808080"/>
<path fill-rule="evenodd" clip-rule="evenodd" d="M34.9941 22.7392C29.2098 20.1092 24.1696 23.244 21.6445 27.8967C24.4131 24.8334 28.5452 23.2794 33.1429 25.3735L34.4979 25.9888L34.6401 26.0553C34.7994 25.0677 34.9191 23.9697 34.9941 22.7392Z" fill="#666666"/>
<path fill-rule="evenodd" clip-rule="evenodd" d="M34.9949 22.7435C34.9198 23.9429 34.8044 25.0183 34.6543 25.9833L38.7723 27.8558C39.2374 28.0682 39.6891 28.338 40.123 28.6566C41.9828 30.0201 43.5679 32.3126 44.4755 34.8749C44.9052 36.0791 45.1798 37.3401 45.264 38.5974C45.2994 39.1241 45.2994 39.6552 45.264 40.1727C45.2549 40.3186 45.2415 40.4651 45.2286 40.6024C45.1353 41.474 44.954 42.2223 44.6531 42.9083C44.6927 42.8729 44.7324 42.8326 44.7678 42.7972C46.2205 41.3373 46.876 40.0092 47.0798 38.0487C47.0969 37.9114 47.1061 37.7698 47.1195 37.619C47.1549 37.1014 47.1549 36.5747 47.1195 36.0437C47.0353 34.7913 46.7563 33.5254 46.3309 32.3212C45.4233 29.7632 43.8334 27.4707 41.9785 26.1029C41.5397 25.7843 41.0886 25.5145 40.6278 25.3064L36.3505 23.3588L34.9949 22.7435Z" fill="#FCC368"/>
<path fill-rule="evenodd" clip-rule="evenodd" d="M45.8744 51.5161C45.4313 56.2653 48.3451 60.5139 53.0302 61.6071H70.9068C77.0042 61.6071 78.8194 60.3766 78.8194 54.7736V30.1971C78.8194 28.7366 77.6237 27.5415 76.1625 27.5415H57.4009C47.7476 27.5415 47.6591 30.9802 47.1183 36.0437C47.1537 36.5747 47.1537 37.1014 47.1183 37.619C47.1055 37.7698 47.0963 37.9114 47.0786 38.0487C48.7656 46.7407 46.2638 47.3602 45.8744 51.5161Z" fill="#FFCC00"/>
<path fill-rule="evenodd" clip-rule="evenodd" d="M57.4492 49.79L56.8999 51.5161L56.1559 53.8617C55.855 54.8181 55.1995 55.3088 54.7789 55.0482C52.3076 53.4991 50.2532 56.8048 53.1182 58.4247C53.8225 58.819 53.2201 59.8676 53.1273 60.2618C53.0785 60.4828 53.0474 60.6952 53.0297 60.9076C53.0077 61.1469 53.0077 61.3812 53.0297 61.6071C53.344 65.2051 58.5204 66.6437 60.9514 61.6071C61.1418 61.2134 61.3146 60.7794 61.4696 60.3058L64.3041 51.5161C64.9858 49.4049 64.8265 47.8473 64.1753 45.7623L62.6744 40.9515H56.9664L56.9487 44.9213L57.6177 47.3468C57.7947 48.5065 57.799 48.6835 57.4492 49.79Z" fill="#FFDDA6"/>
<path fill-rule="evenodd" clip-rule="evenodd" d="M61.3242 45.7629C61.9706 47.8473 62.1342 49.4049 61.4524 51.5161L59.4065 57.8632L58.6143 60.3064C58.4635 60.7794 58.2908 61.2134 58.1003 61.6071C57.3252 63.2092 56.276 64.1565 55.1914 64.5862C56.9889 65.3339 59.473 64.6613 60.9519 61.6071C61.1423 61.2134 61.3151 60.7794 61.4701 60.3064L62.2098 58.0133L64.3046 51.5161C64.3046 51.5118 64.3046 51.5076 64.3088 51.5027C64.3088 51.5027 64.3088 51.4984 64.3088 51.4941C64.3662 51.3214 64.415 51.1536 64.459 50.9894C64.9552 49.1394 64.769 47.6746 64.1758 45.7715C64.1758 45.7672 64.1758 45.7672 64.1758 45.7623L62.6749 40.9515L62.6218 41.0181C62.6218 41.0223 62.6218 41.0223 62.6169 41.0223C62.6127 41.0315 62.6084 41.0358 62.6041 41.0443C62.3026 41.4252 61.9309 41.7615 61.5366 42.0715C61.1735 42.3505 60.7926 42.6117 60.4166 42.868L61.3242 45.7629Z" fill="#FCC368"/>
<path fill-rule="evenodd" clip-rule="evenodd" d="M47.1185 36.0437L51.6968 42.417C52.8613 44.0411 54.9384 45.3467 56.9489 44.9219C57.2321 44.8645 57.5159 44.7711 57.7948 44.6387C58.4851 44.3066 59.2957 43.6511 59.9377 43.2001C60.863 42.5452 61.9263 41.9165 62.6215 41.0181L62.6746 40.9515C64.0515 39.1241 64.1669 36.5301 62.7765 34.5654L59.2291 29.5373C58.6536 28.7451 58.0383 28.0853 57.4005 27.5415C52.2504 23.186 45.5597 26.6162 46.3306 32.3212C46.7554 33.5254 47.0343 34.7906 47.1185 36.0437Z" fill="#A21313"/>
<path fill-rule="evenodd" clip-rule="evenodd" d="M56.4938 31.7816L60.0405 36.8091C60.6649 37.6941 60.9835 38.7036 61.0238 39.7168C61.0409 40.1288 61.0061 40.5444 60.9304 40.9521C60.7754 41.7572 60.4391 42.5275 59.9386 43.2001C59.9429 43.1958 59.9478 43.1915 59.9563 43.1866C60.4702 42.8241 61.0238 42.4701 61.5371 42.0715C61.9399 41.7572 62.3123 41.4166 62.6174 41.0229C62.6217 41.0229 62.6217 41.0229 62.6217 41.0181L62.6748 40.9521C62.9629 40.5713 63.193 40.1507 63.37 39.7168C64.0347 38.0615 63.8754 36.1188 62.7767 34.5654L59.23 29.5373C58.6544 28.7451 58.0386 28.0859 57.4014 27.5415C53.6508 24.3683 49.0762 25.3284 47.1719 28.2934C49.3594 27.3999 52.189 27.6965 54.6646 29.7894C55.3024 30.3296 55.9176 30.9888 56.4938 31.7816Z" fill="#6D1E21"/>
<path d="M76.1621 26.3611H69.5911C68.9386 26.3611 68.41 26.8896 68.41 27.5415C68.41 28.194 68.9386 28.7225 69.5911 28.7225H76.1621C76.9763 28.7225 77.6385 29.3842 77.6385 30.1971V54.7736C77.6385 57.2821 77.2668 58.6603 76.3959 59.3829C75.5127 60.1141 73.8715 60.4266 70.9064 60.4266H62.6715L65.4321 51.8658C66.228 49.4019 65.9729 47.5696 65.3027 45.4114L63.9709 41.1438C64.4025 40.4395 64.7015 39.6515 64.8462 38.8098C65.1465 37.0685 64.754 35.3198 63.7408 33.8849L60.1849 28.8446C60.1544 28.8025 60.1233 28.7634 60.0928 28.7225H65.061C65.7135 28.7225 66.2421 28.194 66.2421 27.5415C66.2421 26.8896 65.7135 26.3611 65.061 26.3611H57.8247C54.906 24.0808 51.6949 24.0594 49.5056 24.9359C47.7521 25.6378 46.4453 26.8945 45.7245 28.4613C45.0311 27.4017 44.2267 26.4569 43.3429 25.6891C43.5144 24.8267 43.4308 23.8635 43.0884 22.9327C42.6367 21.7047 41.7944 20.7355 40.7776 20.2747L39.53 19.7083C38.9069 19.425 38.2104 19.4019 37.5677 19.6436C36.9263 19.8846 36.4178 20.3601 36.1383 20.9784L35.7642 21.7975L35.4828 21.6693C35.4822 21.6687 35.481 21.6681 35.4797 21.6681C31.9794 20.0775 28.3362 20.2905 25.2209 22.2681C21.6223 24.5538 19.104 28.9954 18.7872 33.5059C17.0697 33.4998 14.5044 33.5925 12.0721 34.2548V20.5841C12.0721 17.2583 9.36523 14.5526 6.03821 14.5526C2.70874 14.5526 0 17.2577 0 20.5841V70.0208C0 72.6801 2.16431 74.8438 4.82544 74.8438H75.1752C77.8357 74.8438 80 72.6801 80 70.0208V30.1971C80 28.0817 78.2782 26.3611 76.1621 26.3611ZM63.1842 51.1407L60.3461 59.9432C59.3494 63.031 57.4127 64.0027 55.9344 63.5962C55.0958 63.3649 54.3188 62.6453 54.2078 61.5308C54.2065 61.5088 54.2035 61.4868 54.201 61.4648C54.1797 61.1804 54.1998 60.8728 54.2749 60.5408C54.2847 60.5072 54.3146 60.4272 54.3365 60.3687C54.447 60.0714 54.5978 59.6643 54.6301 59.2126C54.6863 58.4216 54.3451 57.7588 53.6993 57.3975C53.1927 57.1112 52.9028 56.7499 52.9053 56.4056C52.9065 56.1932 53.0206 55.9985 53.2025 55.8984C53.4467 55.7648 53.7836 55.8185 54.1559 56.0516C54.5947 56.3245 55.1373 56.3727 55.6439 56.1853C56.3763 55.9137 56.9739 55.1965 57.2809 54.2194L58.5742 50.1465C58.9868 48.8428 58.9832 48.4735 58.7842 47.1692C58.7769 47.1234 58.7677 47.0782 58.7549 47.0337L58.3783 45.6665C58.6157 45.5481 58.8501 45.4083 59.0802 45.2454L62.1106 43.1116L63.0475 46.1127C63.7006 48.2172 63.7341 49.4385 63.1842 51.1407ZM47.0496 51.6266C47.1619 50.4303 47.4634 49.5819 47.8131 48.5992C48.4723 46.7474 49.2059 44.679 48.6188 40.1556L50.7379 43.1049C51.983 44.8413 53.9954 46.1432 56.0718 46.1841L56.4606 47.594C56.6052 48.5425 56.5991 48.5626 56.3239 49.433L55.0299 53.5071C54.9945 53.6188 54.9548 53.7103 54.917 53.7836C53.9471 53.3417 52.9321 53.3527 52.0667 53.8287C51.134 54.3402 50.5511 55.3223 50.5444 56.391C50.5371 57.5104 51.1432 58.5388 52.2235 59.2596C52.1906 59.364 52.149 59.4757 52.1228 59.5459C52.0667 59.6973 52.0135 59.8401 51.9763 59.9982C51.9739 60.0092 51.972 60.0201 51.9696 60.0311C48.678 58.6737 46.6986 55.3943 47.0496 51.6266ZM50.3827 27.1283C52.3993 26.3214 55.675 26.6498 58.2642 30.2179L61.8115 35.246C62.4609 36.1658 62.7118 37.2894 62.5189 38.4088C62.3267 39.5282 61.7139 40.5023 60.7947 41.1499L57.7197 43.3154C55.8228 44.6564 53.6072 43.0536 52.6556 41.7279L48.266 35.6171C48.1543 34.4299 47.8882 33.2361 47.4927 32.085C47.2284 29.8804 48.3551 27.9401 50.3827 27.1283ZM45.199 32.6569C45.2112 32.6978 45.2252 32.738 45.2417 32.7771C45.7812 34.3335 46.0492 35.9851 45.9406 37.536C45.932 37.6514 45.9222 37.7637 45.9113 37.8741C45.9076 37.9016 45.9039 37.9291 45.9021 37.9572C45.7202 39.6246 45.177 40.7111 43.9294 41.9647C40.8154 45.0964 35.097 46.4868 31.6925 44.9402L26.9037 42.7618C27.644 39.3207 29.0576 37.9156 30.6757 36.3098C32.8357 34.1669 35.2631 31.7554 36.0291 24.5123L40.1385 26.3818C40.5206 26.5552 40.8929 26.7767 41.2537 27.0361C41.2732 27.0508 41.2933 27.0648 41.3135 27.0789C42.9791 28.2996 44.3829 30.3687 45.199 32.6569ZM38.2886 21.9556C38.3154 21.8958 38.363 21.8671 38.399 21.8536C38.4344 21.8402 38.4912 21.8298 38.5535 21.8585L39.8016 22.4249C40.2399 22.6239 40.6403 23.1183 40.8716 23.7482C40.9241 23.8898 40.9631 24.0338 40.9949 24.1766L37.9138 22.7747L38.2886 21.9556ZM21.1145 34.3237C21.1652 30.3137 23.3246 26.2701 26.4874 24.2615C27.5446 23.5901 29.01 22.9675 30.8069 22.9675C31.709 22.9675 32.6941 23.1244 33.7537 23.5107C33.1696 30.5096 31.1481 32.5146 29.0131 34.6332C27.3645 36.2683 25.6671 37.9523 24.7375 41.6498C21.5649 39.5471 21.0895 36.2415 21.1145 34.3237ZM75.1746 72.4823H4.82544C3.4668 72.4823 2.36145 71.3782 2.36145 70.0208V20.5841C2.36145 18.5602 4.01123 16.9141 6.03821 16.9141C8.06335 16.9141 9.71069 18.5602 9.71069 20.5841V35.874V35.885V49.9542C9.71069 51.4667 10.9418 52.6971 12.4548 52.6971H19.6814C20.3339 52.6971 20.8624 52.1686 20.8624 51.5161C20.8624 50.8643 20.3339 50.3357 19.6814 50.3357H12.4548C12.2473 50.3357 12.0721 50.1605 12.0721 49.9536V36.7188C14.3976 35.9583 17.0813 35.8606 18.8275 35.8679C19.2511 39.7809 21.4709 42.8882 25.0806 44.5264C25.0812 44.527 25.0818 44.527 25.0818 44.527L30.7147 47.0898C31.9586 47.6544 33.4167 47.9211 34.9536 47.9211C38.7006 47.9211 42.9126 46.3367 45.6036 43.6298C45.9229 43.3093 46.2079 42.9919 46.4636 42.6727C46.5381 45.1349 46.0577 46.4874 45.5878 47.8082C45.3137 48.5785 45.033 49.3689 44.8492 50.3357H24.1492C23.4973 50.3357 22.9688 50.8643 22.9688 51.5161C22.9688 52.1686 23.4973 52.6971 24.1492 52.6971H44.6539C44.7003 54.8395 45.3564 56.9031 46.5576 58.6145C47.8662 60.4791 49.7729 61.8524 51.9849 62.5433C52.4353 64.2596 53.7891 65.4547 55.3076 65.8728C55.73 65.9888 56.1713 66.0498 56.6199 66.0498C58.4137 66.0498 60.329 65.0757 61.6626 62.7881H70.9064C74.2889 62.7881 76.2817 62.384 77.6385 61.405V70.0208C77.6385 71.3782 76.5332 72.4823 75.1746 72.4823Z" fill="black"/>
<path d="M48.4988 13.0414H51.1678L47.8475 16.3434C47.5088 16.6803 47.4062 17.1887 47.5887 17.6306C47.7712 18.0725 48.2021 18.3612 48.6807 18.3612H54.3044C54.9563 18.3612 55.4849 17.8326 55.4849 17.1802C55.4849 16.5283 54.9563 15.9998 54.3044 15.9998H51.542L54.8623 12.6978C55.2017 12.3602 55.3036 11.8518 55.1211 11.4099C54.9386 10.968 54.5077 10.6799 54.0298 10.6799H48.4988C47.8469 10.6799 47.3184 11.2085 47.3184 11.8604C47.3184 12.5128 47.8469 13.0414 48.4988 13.0414Z" fill="black"/>
<path d="M60.097 7.5177H62.7643L59.4464 10.8148C59.1071 11.1517 59.0045 11.6608 59.187 12.1027C59.3695 12.5446 59.8004 12.8333 60.2789 12.8333H65.9027C66.5546 12.8333 67.0831 12.3047 67.0831 11.6522C67.0831 11.0004 66.5546 10.4718 65.9027 10.4718H63.1421L66.46 7.17468C66.7993 6.83777 66.9019 6.32935 66.7194 5.88684C66.5375 5.44495 66.106 5.15625 65.6281 5.15625H60.097C59.4446 5.15625 58.916 5.68481 58.916 6.33728C58.916 6.98914 59.4446 7.5177 60.097 7.5177Z" fill="black"/>
<g clip-path="url(#clip0_243_32693)">
<path d="M12.1506 13.0998C12.1246 13.0998 12.0981 13.1033 12.0718 13.1107C11.9159 13.1542 11.8248 13.3158 11.8683 13.4716C12.3119 15.0622 13.1826 16.5079 14.3859 17.6524C15.593 18.8006 17.0858 19.5982 18.703 19.9592C18.8608 19.9946 19.0175 19.895 19.0527 19.7371C19.088 19.5792 18.9885 19.4226 18.8306 19.3873C17.3172 19.0495 15.9198 18.3028 14.7897 17.2278C13.663 16.1562 12.8479 14.8028 12.4327 13.3141C12.3966 13.1846 12.2788 13.0998 12.1506 13.0998Z" fill="#A21313"/>
<path d="M19.1234 1.96166C19.1061 1.96166 19.0886 1.96322 19.0711 1.96638C15.5766 2.59658 12.7352 5.224 11.832 8.66009C11.7908 8.81658 11.8843 8.97677 12.0409 9.0179C12.1974 9.059 12.3575 8.96552 12.3987 8.80904C13.2441 5.59244 15.904 3.1329 19.175 2.54298C19.3343 2.51427 19.4401 2.36189 19.4114 2.20267C19.3858 2.06103 19.2624 1.96166 19.1234 1.96166Z" fill="#A21313"/>
<path d="M22.7166 2.04749C22.5833 2.04749 22.4627 2.13917 22.4314 2.27468C22.395 2.43234 22.4934 2.58964 22.651 2.62601C24.1514 2.97202 25.5357 3.72109 26.6543 4.79226C27.77 5.86058 28.5778 7.20699 28.9903 8.68593C29.0337 8.84175 29.1953 8.93292 29.3512 8.88941C29.507 8.84593 29.5981 8.68433 29.5547 8.52851C29.1139 6.94835 28.2511 5.51007 27.0596 4.36906C25.8647 3.22499 24.3858 2.42484 22.7827 2.05511C22.7606 2.04995 22.7384 2.04749 22.7166 2.04749Z" fill="#A21313"/>
<path d="M29.2724 13.0998C29.1442 13.0998 29.0265 13.1846 28.9904 13.3141C28.5778 14.7931 27.7701 16.1395 26.6544 17.2079C25.5357 18.279 24.1514 19.028 22.651 19.3741C22.4934 19.4105 22.395 19.5678 22.4314 19.7254C22.4678 19.8831 22.6251 19.9814 22.7827 19.9451C24.3859 19.5754 25.8648 18.7752 27.0596 17.6311C28.2512 16.4901 29.114 15.0518 29.5548 13.4716C29.5982 13.3157 29.5071 13.1542 29.3513 13.1107C29.3249 13.1033 29.2985 13.0998 29.2724 13.0998Z" fill="#A21313"/>
<path d="M17.0606 14.8988L20.6176 12.7351C20.6752 12.7001 20.7476 12.7001 20.8052 12.7351L24.3622 14.8988C24.5237 14.997 24.7084 14.8124 24.6102 14.6508L22.4464 11.0938C22.4114 11.0362 22.4114 10.9639 22.4464 10.9063L24.6101 7.34927C24.7084 7.18775 24.5237 7.00306 24.3622 7.1013L20.8052 9.26501C20.7475 9.30005 20.6752 9.30005 20.6176 9.26501L17.0606 7.1013C16.8991 7.00306 16.7144 7.18775 16.8126 7.34927L18.9763 10.9063C19.0114 10.9639 19.0114 11.0362 18.9763 11.0938L16.8126 14.6508C16.7144 14.8124 16.8991 14.997 17.0606 14.8988Z" fill="#F4AD47"/>
<path d="M19.8965 18.0874C19.7346 18.0874 19.6035 18.2186 19.6035 18.3804V20.7027C19.6035 20.8309 19.6869 20.9442 19.8093 20.9824C19.9319 21.0205 20.0648 20.9747 20.1376 20.8692L21.2258 19.2933L21.2121 20.7042C21.2106 20.866 21.3405 20.9984 21.5023 21H21.5052C21.6657 21 21.7965 20.8707 21.7981 20.7099L21.8198 18.4616C21.8198 18.301 21.7301 18.1711 21.5913 18.1277C21.4552 18.0853 21.3117 18.138 21.2257 18.2623L20.1895 19.7629V18.3804C20.1895 18.2186 20.0583 18.0874 19.8965 18.0874Z" fill="#A21313"/>
<path d="M30.4187 9.55427H29.4473C29.2854 9.55427 29.1543 9.68544 29.1543 9.84724V12.1527C29.1543 12.3145 29.2854 12.4457 29.4473 12.4457H30.4187C30.5805 12.4457 30.7116 12.3145 30.7116 12.1527C30.7116 11.9909 30.5805 11.8597 30.4187 11.8597H29.7402V10.1402H30.4187C30.5805 10.1402 30.7116 10.009 30.7116 9.84724C30.7116 9.68544 30.5805 9.55427 30.4187 9.55427Z" fill="#F4AD47"/>
<path d="M30.347 10.707H29.4473C29.2854 10.707 29.1543 10.8382 29.1543 11C29.1543 11.1618 29.2854 11.293 29.4473 11.293H30.347C30.5089 11.293 30.64 11.1618 30.64 11C30.64 10.8382 30.5089 10.707 30.347 10.707Z" fill="#F4AD47"/>
<path d="M20.7659 1.0001C20.3726 1.0001 19.9883 1.16502 19.738 1.44119C19.6293 1.56107 19.6385 1.74635 19.7583 1.85502C19.8781 1.96365 20.0635 1.95459 20.1722 1.83467C20.3133 1.67896 20.5352 1.58599 20.7659 1.58599C20.9896 1.58599 21.1472 1.71959 21.1702 1.84881C21.2008 2.02018 20.968 2.12572 20.8665 2.16318C20.5056 2.29631 20.1852 2.43896 20.1717 2.44494C20.1576 2.45127 20.144 2.45865 20.1311 2.46709C19.885 2.62748 19.7583 2.90885 19.8002 3.20127C19.845 3.51291 20.0728 3.7667 20.3948 3.86369C21.0316 4.05564 21.5556 3.6233 21.5776 3.60482C21.7015 3.50068 21.7175 3.31592 21.6134 3.19205C21.5097 3.06869 21.326 3.05232 21.2021 3.15506C21.1931 3.16232 20.8904 3.401 20.5638 3.30268C20.4156 3.25803 20.3861 3.15865 20.3802 3.11799C20.3761 3.08881 20.374 3.01892 20.4362 2.96869C20.5182 2.93283 20.7839 2.81818 21.0694 2.71291C21.6576 2.49592 21.8052 2.07107 21.7471 1.7458C21.6699 1.31373 21.2572 1.0001 20.7659 1.0001Z" fill="#A21313"/>
<path d="M22.4468 10.9062C22.4118 10.9638 22.4118 11.0361 22.4468 11.0937L23.3572 12.5903L22.5088 12.7969L22.3021 13.6454L20.8056 12.735C20.748 12.7 20.6756 12.7 20.618 12.735L19.1214 13.6454L18.9148 12.7969L18.0664 12.5903L18.9768 11.0937C19.0118 11.0361 19.0118 10.9638 18.9768 10.9062L18.0664 9.40961L18.9148 9.20296L19.1214 8.35457L20.618 9.26492C20.6756 9.29996 20.748 9.29996 20.8056 9.26492L22.3021 8.35457L22.5088 9.203L23.3572 9.40964L22.4468 10.9062Z" fill="#F4AD47"/>
<path d="M11.5067 9.54348C11.3607 9.54348 11.23 9.63567 11.1811 9.77352C11.1764 9.78692 11.1726 9.80063 11.1699 9.81453L10.7166 12.1063C10.6852 12.265 10.7884 12.4191 10.9471 12.4506C11.1059 12.482 11.2599 12.3787 11.2914 12.22L11.5585 10.8695L11.9844 12.2455C12.0323 12.4001 12.1964 12.4865 12.3509 12.4388C12.5055 12.3909 12.592 12.2268 12.5442 12.0723L11.8364 9.78547C11.8355 9.78293 11.8347 9.78035 11.8339 9.77782C11.7866 9.63864 11.656 9.5445 11.509 9.54356C11.5083 9.54348 11.5075 9.54348 11.5067 9.54348Z" fill="#F4AD47"/>
<path d="M13.0193 9.54371C12.8733 9.54371 12.7427 9.63582 12.6937 9.77356C12.6924 9.77746 12.691 9.78141 12.6898 9.78539L11.9838 12.0772C11.9361 12.2318 12.0229 12.3957 12.1775 12.4434C12.3322 12.491 12.4961 12.4043 12.5438 12.2497L12.9688 10.8699L13.2368 12.2163C13.2684 12.375 13.4226 12.478 13.5813 12.4465C13.74 12.4149 13.843 12.2607 13.8114 12.102L13.3563 9.81516C13.3538 9.8025 13.3505 9.79004 13.3463 9.77785C13.2989 9.63879 13.1684 9.54473 13.0215 9.54379C13.0208 9.54371 13.02 9.54371 13.0193 9.54371Z" fill="#F4AD47"/>
<path d="M20.8859 16.9791L21.9966 12.4187C22.0126 12.3531 22.0637 12.302 22.1293 12.286L26.6897 11.1753C26.8734 11.1306 26.8734 10.8694 26.6897 10.8246L22.1293 9.7139C22.0638 9.69792 22.0126 9.64679 21.9966 9.58124L20.8859 5.02087C20.8412 4.8372 20.58 4.8372 20.5352 5.02087L19.4245 9.58128C19.4086 9.64679 19.3574 9.69796 19.2919 9.71394L14.7315 10.8246C14.5478 10.8693 14.5478 11.1305 14.7315 11.1753L19.2919 12.286C19.3574 12.302 19.4086 12.3531 19.4246 12.4187L20.5353 16.9791C20.58 17.1627 20.8412 17.1627 20.8859 16.9791Z" fill="#A21313"/>
<path d="M26.6911 11.1753L22.1307 12.286C22.0652 12.302 22.014 12.3531 21.998 12.4186L20.8873 16.9791C20.8426 17.1627 20.5814 17.1627 20.5366 16.9791L20.3477 16.2031L21.4121 11.8327C21.428 11.7672 21.4792 11.716 21.5447 11.7L25.9152 10.6356L26.6911 10.8246C26.8748 10.8693 26.8748 11.1306 26.6911 11.1753Z" fill="#A21313"/>
<path d="M21.5446 9.12801C21.4791 9.11203 21.4279 9.0609 21.412 8.99535L20.4902 5.21086L20.5365 5.02086C20.5812 4.83719 20.8425 4.83719 20.8872 5.02086L21.9091 9.2168L21.5446 9.12801Z" fill="#A21313"/>
<path d="M28.7676 18.7627C28.6926 18.7627 28.6176 18.7913 28.5604 18.8485C28.446 18.9629 28.446 19.1484 28.5604 19.2628L30.2117 20.9141C30.3262 21.0285 30.5116 21.0285 30.626 20.9141C30.7404 20.7997 30.7404 20.6141 30.626 20.4998L28.9748 18.8485C28.9176 18.7913 28.8426 18.7627 28.7676 18.7627Z" fill="#A21313"/>
<path d="M12.6552 18.7627C12.5802 18.7627 12.5052 18.7913 12.448 18.8485L10.7967 20.4998C10.6823 20.6142 10.6823 20.7997 10.7967 20.9141C10.9112 21.0285 11.0967 21.0285 11.2111 20.9141L12.8624 19.2628C12.9768 19.1484 12.9768 18.9629 12.8624 18.8485C12.8051 18.7913 12.7301 18.7627 12.6552 18.7627Z" fill="#A21313"/>
<path d="M30.4189 1.00001C30.3439 1.00001 30.2689 1.0286 30.2117 1.08583L28.5604 2.73707C28.446 2.85149 28.446 3.037 28.5604 3.15137C28.6749 3.26579 28.8603 3.26579 28.9748 3.15137L30.626 1.50012C30.7404 1.38571 30.7404 1.2002 30.626 1.08583C30.5688 1.02864 30.4938 1.00001 30.4189 1.00001Z" fill="#A21313"/>
<path d="M11.0039 1.00001C10.9289 1.00001 10.854 1.0286 10.7967 1.08583C10.6823 1.20024 10.6823 1.38575 10.7967 1.50012L12.448 3.15137C12.5625 3.26579 12.748 3.26579 12.8623 3.15137C12.9767 3.03696 12.9767 2.85145 12.8623 2.73707L11.2111 1.08583C11.1539 1.02864 11.0789 1.00001 11.0039 1.00001Z" fill="#A21313"/>
</g>
<defs>
<clipPath id="clip0_243_32693">
<rect width="20" height="20" fill="white" transform="matrix(1 0 0 -1 10.7109 21)"/>
</clipPath>
</defs>
</svg>
