<svg width="80" height="80" viewBox="0 0 80 80" fill="none" xmlns="http://www.w3.org/2000/svg">
<path d="M3.07617 41.2402H76.9223V79.9999H3.07617V41.2402Z" fill="#FFCC00"/>
<path d="M76.9223 79.9999H3.07617C37.0762 77.5813 63.3993 66.5891 76.9223 41.2402V79.9999Z" fill="#ECC320"/>
<path d="M46.1543 55.1938H70.7697V72.2481H46.1543V55.1938Z" fill="#E9F0F4"/>
<path d="M70.7697 72.2481H46.1543C51.4304 72.2468 56.5783 70.6096 60.8993 67.5586C65.2204 64.5077 68.5052 60.1908 70.3081 55.1938H70.7697V72.2481Z" fill="#CFDFE8"/>
<path d="M59.2315 50.5425C60.506 50.5425 61.5392 49.5013 61.5392 48.2169C61.5392 46.9326 60.506 45.8914 59.2315 45.8914C57.957 45.8914 56.9238 46.9326 56.9238 48.2169C56.9238 49.5013 57.957 50.5425 59.2315 50.5425Z" fill="#A21313"/>
<path d="M66.9229 50.5425C68.1974 50.5425 69.2306 49.5013 69.2306 48.2169C69.2306 46.9326 68.1974 45.8914 66.9229 45.8914C65.6484 45.8914 64.6152 46.9326 64.6152 48.2169C64.6152 49.5013 65.6484 50.5425 66.9229 50.5425Z" fill="#A21313"/>
<path d="M53.8465 42.7908H50.7695V35.0388H56.9234V38.1396H53.8465V42.7908Z" fill="#AABECE"/>
<path d="M66.1538 42.7908H63.0769V38.1396H60V35.0388H66.1538V42.7908Z" fill="#AABECE"/>
<path d="M9.23047 48.9922H38.4612V59.8449H9.23047V48.9922Z" fill="#A21313"/>
<path d="M9.23047 62.9458H38.4612V73.7985H9.23047V62.9458Z" fill="#A21313"/>
<path d="M38.4612 62.9458V73.7985H9.23047C22.3074 72.4962 35.292 71.1318 38.4612 62.9458Z" fill="#921E1E"/>
<path d="M38.4612 48.9922V59.8449H9.23047C23.7843 59.9224 36.7382 58.7906 38.4612 48.9922Z" fill="#921E1E"/>
<path d="M20 66.0464H26.1538V69.1472H20V66.0464Z" fill="#F49E21"/>
<path d="M55.3848 58.2947H61.5386V61.3955H55.3848V58.2947Z" fill="#AABECE"/>
<path d="M26.1523 5.5813H36.9216V8.68207H26.1523V5.5813Z" fill="#A21313"/>
<path d="M9.23047 5.5813H29.2305V8.68207H9.23047V5.5813Z" fill="#A21313"/>
<path d="M4.61523 5.5813H12.3075V8.68207H4.61523V5.5813Z" fill="#A21313"/>
<path d="M9.23047 2.48071H12.3074V25.7365H9.23047V2.48071Z" fill="#CFDFE8"/>
<path d="M26.1543 2.48071H29.2312V17.9846H26.1543V2.48071Z" fill="#AABECE"/>
<path d="M10.7683 30.3876C12.4677 30.3876 13.8453 28.9993 13.8453 27.2868C13.8453 25.5743 12.4677 24.186 10.7683 24.186C9.06899 24.186 7.69141 25.5743 7.69141 27.2868C7.69141 28.9993 9.06899 30.3876 10.7683 30.3876Z" fill="#CFDFE8"/>
<path d="M35.3846 24.1859C35.3818 25.9082 34.81 27.5804 33.7594 28.9388C32.7088 30.2972 31.2392 31.2643 29.5826 31.6876C27.926 32.1108 26.1767 31.966 24.6108 31.2761C23.0449 30.5862 21.7516 29.3904 20.935 27.8774C20.1184 26.3645 19.825 24.6206 20.1011 22.921C20.3772 21.2213 21.2071 19.6627 22.4597 18.4912C23.7124 17.3197 25.3166 16.6019 27.0191 16.4511C28.7215 16.3004 30.4253 16.7253 31.8615 17.6588C32.9442 18.3624 33.8341 19.3288 34.4497 20.4692C35.0652 21.6097 35.3867 22.8877 35.3846 24.1859Z" fill="#AABECE"/>
<path d="M33.0773 21.8606C33.0795 23.2548 32.7086 24.6238 32.0037 25.8233C31.2987 27.0229 30.2858 28.0087 29.0715 28.6769C27.8573 29.345 26.4868 29.6708 25.1042 29.62C23.7217 29.5691 22.3784 29.1434 21.2158 28.3877C20.2507 26.8979 19.8236 25.1188 20.0061 23.3492C20.1885 21.5795 20.9695 19.927 22.2179 18.6689C23.4663 17.4109 25.1061 16.6238 26.8621 16.44C28.6182 16.2561 30.3835 16.6865 31.8619 17.6591C32.6591 18.9129 33.081 20.3715 33.0773 21.8606Z" fill="#CFDFE8"/>
<path d="M0 39.6899H80V42.7907H0V39.6899Z" fill="#F49E21"/>
<path d="M20 53.6433H26.1538V56.7441H20V53.6433Z" fill="#F49E21"/>
<g clip-path="url(#clip0_427_12127)">
<path d="M54.6949 9.79855C54.6628 9.79855 54.6302 9.79419 54.5978 9.78508C54.406 9.73115 54.2939 9.53072 54.3473 9.33745C54.8934 7.36458 55.9649 5.57146 57.4459 4.15189C58.9316 2.72786 60.769 1.73852 62.7593 1.29084C62.9535 1.24695 63.1464 1.37045 63.1898 1.56633C63.2331 1.76216 63.1107 1.95639 62.9164 2.00014C61.0537 2.41914 59.3339 3.3453 57.9429 4.67854C56.5562 6.0077 55.553 7.68629 55.042 9.53275C54.9976 9.69336 54.8527 9.79855 54.6949 9.79855Z" fill="#A21313"/>
<path d="M63.277 23.6134C63.2558 23.6134 63.2342 23.6115 63.2126 23.6076C58.9118 22.8259 55.4146 19.5671 54.3029 15.3053C54.2523 15.1112 54.3674 14.9125 54.5601 14.8615C54.7527 14.8105 54.9498 14.9265 55.0004 15.1206C56.041 19.1101 59.3147 22.1607 63.3406 22.8924C63.5366 22.928 63.6668 23.117 63.6315 23.3145C63.6 23.4902 63.4481 23.6134 63.277 23.6134Z" fill="#A21313"/>
<path d="M67.7002 23.507C67.5361 23.507 67.3877 23.3933 67.3491 23.2252C67.3044 23.0297 67.4254 22.8346 67.6195 22.7895C69.4661 22.3603 71.1699 21.4312 72.5466 20.1027C73.9198 18.7776 74.9139 17.1076 75.4216 15.2733C75.4751 15.08 75.674 14.9669 75.8658 15.0209C76.0576 15.0748 76.1697 15.2753 76.1163 15.4685C75.5738 17.4284 74.5119 19.2123 73.0453 20.6276C71.5748 22.0465 69.7546 23.039 67.7816 23.4976C67.7543 23.504 67.727 23.507 67.7002 23.507Z" fill="#A21313"/>
<path d="M75.767 9.79871C75.6092 9.79871 75.4643 9.69352 75.4198 9.53287C74.9121 7.69852 73.9179 6.02851 72.5447 4.70346C71.1679 3.37492 69.4641 2.44585 67.6175 2.01664C67.4235 1.97153 67.3024 1.77642 67.3472 1.58088C67.392 1.38534 67.5857 1.26334 67.7796 1.30845C69.7527 1.76702 71.5729 2.75947 73.0434 4.17851C74.51 5.59367 75.572 7.37768 76.1145 9.33757C76.1679 9.53088 76.0558 9.73127 75.864 9.78519C75.8316 9.7944 75.799 9.79871 75.767 9.79871Z" fill="#A21313"/>
<path d="M60.7375 7.56739L65.1153 10.2511C65.1862 10.2945 65.2753 10.2945 65.3462 10.2511L69.724 7.56739C69.9228 7.44554 70.1501 7.67461 70.0292 7.87495L67.3661 12.2867C67.323 12.3582 67.323 12.4479 67.3661 12.5194L70.0292 16.9312C70.1501 17.1315 69.9228 17.3606 69.724 17.2387L65.3461 14.555C65.2752 14.5116 65.1862 14.5116 65.1153 14.555L60.7374 17.2387C60.5386 17.3606 60.3113 17.1315 60.4322 16.9312L63.0953 12.5194C63.1384 12.4479 63.1384 12.3582 63.0953 12.2867L60.4322 7.87495C60.3113 7.67461 60.5387 7.44554 60.7375 7.56739Z" fill="#F4AD47"/>
<path d="M64.2278 3.61255C64.0286 3.61255 63.8672 3.44986 63.8672 3.24918V0.36875C63.8672 0.209738 63.9698 0.0691861 64.1205 0.0218508C64.2713 -0.025436 64.4349 0.0313954 64.5245 0.162258L65.8639 2.11686L65.847 0.366861C65.8451 0.166182 66.005 0.00193798 66.2042 0H66.2077C66.4052 0 66.5663 0.160368 66.5682 0.359835L66.595 3.1484C66.595 3.34758 66.4845 3.50872 66.3136 3.5625C66.1462 3.61516 65.9696 3.54971 65.8637 3.39554L64.5883 1.5344V3.24918C64.5883 3.44986 64.4269 3.61255 64.2278 3.61255Z" fill="#A21313"/>
<path d="M77.1792 14.1962H75.9836C75.7844 14.1962 75.623 14.0335 75.623 13.8329V10.9734C75.623 10.7727 75.7844 10.61 75.9836 10.61H77.1792C77.3784 10.61 77.5398 10.7727 77.5398 10.9734C77.5398 11.174 77.3784 11.3367 77.1792 11.3367H76.3442V13.4695H77.1792C77.3784 13.4695 77.5398 13.6322 77.5398 13.8329C77.5398 14.0335 77.3784 14.1962 77.1792 14.1962Z" fill="#F4AD47"/>
<path d="M77.091 12.7664H75.9836C75.7844 12.7664 75.623 12.6037 75.623 12.403C75.623 12.2024 75.7844 12.0397 75.9836 12.0397H77.091C77.2902 12.0397 77.4516 12.2024 77.4516 12.403C77.4516 12.6037 77.2902 12.7664 77.091 12.7664Z" fill="#F4AD47"/>
<path d="M65.2999 24.8062C64.8158 24.8062 64.3429 24.6016 64.0348 24.2591C63.9011 24.1104 63.9123 23.8806 64.0598 23.7458C64.2073 23.6111 64.4354 23.6223 64.5692 23.771C64.7428 23.9642 65.016 24.0795 65.2999 24.0795C65.5753 24.0795 65.7692 23.9138 65.7976 23.7535C65.8352 23.5409 65.5487 23.41 65.4238 23.3636C64.9796 23.1985 64.5852 23.0215 64.5686 23.0141C64.5512 23.0063 64.5345 22.9971 64.5186 22.9866C64.2158 22.7877 64.0597 22.4387 64.1114 22.076C64.1665 21.6895 64.4469 21.3747 64.8432 21.2544C65.6269 21.0163 66.2719 21.5526 66.299 21.5755C66.4514 21.7047 66.4711 21.9338 66.343 22.0875C66.2153 22.2405 65.9892 22.2608 65.8368 22.1333C65.8257 22.1243 65.4532 21.8283 65.0512 21.9502C64.8688 22.0056 64.8324 22.1289 64.8253 22.1793C64.8201 22.2155 64.8175 22.3022 64.8942 22.3645C64.9951 22.409 65.3221 22.5512 65.6734 22.6817C66.3974 22.9509 66.579 23.4778 66.5075 23.8813C66.4125 24.4172 65.9046 24.8062 65.2999 24.8062Z" fill="#A21313"/>
<path d="M67.3679 12.5194C67.3247 12.448 67.3247 12.3582 67.3679 12.2868L68.4883 10.4306L67.4441 10.1743L67.1898 9.12195L65.3479 10.2511C65.2769 10.2945 65.1879 10.2945 65.117 10.2511L63.2751 9.12195L63.0207 10.1743L61.9766 10.4306L63.097 12.2868C63.1401 12.3582 63.1401 12.448 63.097 12.5194L61.9766 14.3756L63.0207 14.6319L63.2751 15.6842L65.117 14.5551C65.1879 14.5116 65.2769 14.5116 65.3479 14.5551L67.1898 15.6842L67.4441 14.6319L68.4883 14.3756L67.3679 12.5194Z" fill="#F4AD47"/>
<path d="M53.9033 14.2096C53.7235 14.2096 53.5627 14.0952 53.5025 13.9243C53.4967 13.9076 53.4921 13.8906 53.4887 13.8734L52.9308 11.0309C52.8921 10.834 53.0192 10.6429 53.2145 10.6039C53.4099 10.5649 53.5995 10.693 53.6382 10.8899L53.967 12.5649L54.4912 10.8582C54.5501 10.6665 54.7521 10.5593 54.9423 10.6185C55.1325 10.6779 55.239 10.8814 55.1801 11.0731L54.309 13.9094C54.308 13.9126 54.307 13.9158 54.3059 13.9189C54.2477 14.0915 54.087 14.2083 53.9061 14.2095C53.9052 14.2096 53.9042 14.2096 53.9033 14.2096Z" fill="#F4AD47"/>
<path d="M55.7651 14.2093C55.5855 14.2093 55.4247 14.0951 55.3645 13.9243C55.3628 13.9194 55.3612 13.9145 55.3596 13.9096L54.4907 11.0671C54.4321 10.8753 54.5388 10.6719 54.7291 10.6129C54.9195 10.5538 55.1213 10.6613 55.1799 10.8531L55.7031 12.5645L56.0328 10.8945C56.0717 10.6976 56.2616 10.5699 56.4568 10.609C56.6522 10.6482 56.7789 10.8395 56.7401 11.0363L56.18 13.8727C56.1769 13.8884 56.1728 13.9038 56.1677 13.9189C56.1093 14.0914 55.9487 14.2081 55.7679 14.2092C55.767 14.2093 55.766 14.2093 55.7651 14.2093Z" fill="#F4AD47"/>
<path d="M65.4473 4.98714L66.8144 10.6435C66.834 10.7247 66.897 10.7882 66.9776 10.808L72.5904 12.1856C72.8165 12.2411 72.8165 12.5651 72.5904 12.6206L66.9776 13.9982C66.897 14.018 66.834 14.0814 66.8144 14.1627L65.4473 19.819C65.3923 20.0468 65.0708 20.0468 65.0157 19.819L63.6487 14.1627C63.629 14.0814 63.5661 14.018 63.4854 13.9982L57.8727 12.6206C57.6466 12.5651 57.6466 12.2411 57.8727 12.1856L63.4855 10.808C63.5661 10.7882 63.6291 10.7248 63.6488 10.6435L65.0158 4.98714C65.0708 4.75933 65.3923 4.75933 65.4473 4.98714Z" fill="#A21313"/>
<path d="M72.5906 12.1856L66.9777 10.808C66.897 10.7882 66.8341 10.7248 66.8144 10.6435L65.4474 4.98714C65.3924 4.75933 65.0709 4.75933 65.0158 4.98714L64.7832 5.94955L66.0933 11.3702C66.1129 11.4515 66.1758 11.515 66.2565 11.5348L71.6356 12.855L72.5906 12.6206C72.8166 12.5651 72.8166 12.2411 72.5906 12.1856Z" fill="#A21313"/>
<path d="M66.2567 14.7249C66.1761 14.7447 66.1131 14.8081 66.0934 14.8894L64.959 19.5834L65.016 19.819C65.071 20.0468 65.3925 20.0468 65.4476 19.819L66.7053 14.6147L66.2567 14.7249Z" fill="#A21313"/>
<path d="M75.1458 2.77492C75.0535 2.77492 74.9612 2.73945 74.8908 2.66847C74.75 2.52656 74.75 2.29648 74.8908 2.15462L76.9231 0.106554C77.064 -0.0353552 77.2923 -0.0353552 77.433 0.106554C77.5738 0.248463 77.5738 0.47855 77.433 0.62041L75.4007 2.66847C75.3303 2.7394 75.238 2.77492 75.1458 2.77492Z" fill="#A21313"/>
<path d="M55.3167 2.77492C55.2245 2.77492 55.1322 2.73945 55.0617 2.66847L53.0294 0.62041C52.8886 0.478501 52.8886 0.248414 53.0294 0.106554C53.1703 -0.0353552 53.3986 -0.0353552 53.5394 0.106554L55.5717 2.15462C55.7126 2.29652 55.7126 2.52661 55.5717 2.66847C55.5013 2.7394 55.409 2.77492 55.3167 2.77492Z" fill="#A21313"/>
<path d="M77.1781 24.8062C77.0858 24.8062 76.9935 24.7707 76.9231 24.6997L74.8908 22.6517C74.75 22.5098 74.75 22.2797 74.8908 22.1378C75.0316 21.9959 75.2599 21.9959 75.4007 22.1378L77.433 24.1859C77.5738 24.3278 77.5738 24.5579 77.433 24.6997C77.3626 24.7707 77.2703 24.8062 77.1781 24.8062Z" fill="#A21313"/>
<path d="M53.2844 24.8062C53.1921 24.8062 53.0999 24.7707 53.0294 24.6997C52.8886 24.5578 52.8886 24.3277 53.0294 24.1859L55.0617 22.1378C55.2027 21.9959 55.4309 21.9959 55.5717 22.1378C55.7125 22.2797 55.7125 22.5098 55.5717 22.6517L53.5394 24.6997C53.469 24.7707 53.3767 24.8062 53.2844 24.8062Z" fill="#A21313"/>
</g>
<defs>
<clipPath id="clip0_427_12127">
<rect width="24.6154" height="24.8062" fill="white" transform="translate(52.9238)"/>
</clipPath>
</defs>
</svg>
