<svg width="80" height="80" viewBox="0 0 80 80" fill="none" xmlns="http://www.w3.org/2000/svg">
<g clip-path="url(#clip0_2068_5313)">
<path d="M1.60901 65.024L14.9746 78.3896L78.39 14.9743L65.0244 1.60868L1.60901 65.024Z" fill="#FFCC00"/>
<path d="M22.5504 14.5826L10.4062 26.7268L54.6648 70.9853L66.809 58.8411L22.5504 14.5826Z" fill="#A21313"/>
<path d="M4.51625 13.7264L9.86718 8.37547C11.78 6.46266 14.6562 6.6875 16.569 8.60031L22.5512 14.5825L10.4069 26.7265L4.42469 20.7444C2.51203 18.8317 2.6036 15.639 4.51625 13.7264Z" fill="#61C7D2"/>
<path d="M66.8083 58.8416L73.5025 77.4968L54.6641 70.9857L66.8083 58.8416Z" fill="#EFEFEF"/>
<path d="M79.529 13.8374L66.1629 0.471337C65.5348 -0.156787 64.5162 -0.156787 63.8881 0.471337L37.3011 27.0583L23.6877 13.4449L17.7054 7.46273C16.401 6.15836 14.7321 5.43961 13.0068 5.43961C11.4076 5.43961 9.88834 6.0782 8.72865 7.23789L3.37788 12.5888C0.790545 15.1762 0.749452 19.345 3.28632 21.8821L9.26865 27.8643L22.8821 41.4777L0.471327 63.8881C-0.157109 64.5162 -0.157109 65.5348 0.471327 66.1629L13.8371 79.5287C14.1511 79.8428 14.5629 79.9998 14.9746 79.9998C15.3863 79.9998 15.798 79.8428 16.1121 79.5287L38.5225 57.1183L53.5273 72.1231C53.5453 72.141 53.5647 72.1568 53.5834 72.1737C53.5981 72.187 53.6122 72.2006 53.6273 72.2134C53.674 72.2528 53.722 72.2903 53.7726 72.324C53.774 72.325 53.7756 72.3259 53.7773 72.3268C53.8273 72.3599 53.8792 72.3893 53.9326 72.4165C53.9492 72.4249 53.9662 72.4324 53.9831 72.4404C54.0242 72.4598 54.0659 72.4773 54.1084 72.4929C54.119 72.497 54.1289 72.5023 54.1398 72.506L72.9782 79.017C73.1501 79.0763 73.3274 79.1052 73.5035 79.1052C73.5099 79.1052 73.5163 79.1052 73.5229 79.1052C74.4045 79.0973 75.1165 78.3801 75.1165 77.4965C75.1165 77.2646 75.0674 77.0443 74.9792 76.8453L68.3239 58.2978C68.3217 58.2914 68.3182 58.2854 68.3157 58.279C68.296 58.2264 68.2738 58.1742 68.2485 58.1236C68.2457 58.1179 68.2434 58.1119 68.2404 58.1062C68.2117 58.0501 68.1793 57.9956 68.1435 57.9428C68.1364 57.932 68.1279 57.9219 68.1204 57.9114C68.0929 57.8726 68.0637 57.8348 68.0323 57.7979C68.0181 57.7812 68.0031 57.7654 67.9882 57.7494C67.9743 57.7342 67.9617 57.7186 67.9471 57.7039L52.9423 42.6991L79.5288 16.1122C80.1571 15.4841 80.1571 14.4657 79.529 13.8374ZM5.56132 19.6069C4.95319 18.9988 4.62726 18.1668 4.64351 17.2643C4.6596 16.364 5.02757 15.4891 5.65304 14.8637L11.004 9.51273C11.564 8.95273 12.2565 8.65695 13.0069 8.65695C13.873 8.65695 14.7336 9.04085 15.4307 9.73773L20.2752 14.5822L10.406 24.4516L5.56132 19.6069ZM32.8908 58.2004L27.6297 52.9394C27.0017 52.3112 25.9832 52.3112 25.3549 52.9394C24.7264 53.5675 24.7264 54.5861 25.3549 55.2142L30.616 60.4753L27.2032 63.8881L24.7858 61.4709C24.1577 60.8428 23.1391 60.8428 22.511 61.4709C21.8825 62.099 21.8825 63.1176 22.511 63.7457L24.9282 66.1629L21.5157 69.5756L16.2546 64.3145C15.6265 63.6864 14.6079 63.6864 13.9797 64.3145C13.3513 64.9426 13.3513 65.9612 13.9797 66.5893L19.2408 71.8504L14.9752 76.116L3.88413 65.0256L25.1571 43.7527L36.2478 54.8434L32.8908 58.2004ZM12.6811 26.7266L16.4247 22.983L58.4089 64.9672L54.665 68.7111L12.6811 26.7266ZM70.8551 74.8795L57.6208 70.3051L61.8026 66.1232C61.809 66.117 61.8161 66.1115 61.8225 66.1053C61.8289 66.0989 61.8342 66.0918 61.8406 66.0854L66.1525 61.7736L70.8551 74.8795ZM64.5343 58.8415L60.6839 62.692L18.6999 20.708L22.5505 16.8574L64.5343 58.8415ZM72.7038 18.3874L70.2867 15.9701C69.6585 15.3419 68.6399 15.3419 68.0118 15.9701C67.3834 16.5982 67.3834 17.6168 68.0118 18.2449L70.429 20.6621L67.0164 24.0747L61.7553 18.8136C61.1271 18.1855 60.1086 18.1855 59.4804 18.8136C58.852 19.4418 58.852 20.4604 59.4804 21.0885L64.7415 26.3496L61.3289 29.7622L58.9115 27.345C58.2836 26.7169 57.265 26.7169 56.6367 27.345C56.0086 27.9732 56.0083 28.9918 56.6367 29.6199L59.0539 32.0371L55.6412 35.4497L50.3801 30.1886C49.752 29.5605 48.7334 29.5605 48.1053 30.1886C47.4769 30.8167 47.4769 31.8353 48.1053 32.4635L53.3664 37.7245L50.6675 40.4238L39.5767 29.333L65.0256 3.88399L76.1163 14.9747L72.7038 18.3874Z" fill="#231F20"/>
</g>
<defs>
<clipPath id="clip0_2068_5313">
<rect width="80" height="80" fill="white"/>
</clipPath>
</defs>
</svg>
